<svg width="55" height="24" viewBox="0 0 55 24" fill="none" xmlns="http://www.w3.org/2000/svg">
<g clip-path="url(#clip0_403:43346)">
<path d="M23.0522 23.4138C23.2042 23.3099 23.3668 23.2234 23.5371 23.1558C23.7709 23.1148 24.0133 23.1265 24.2472 23.0826C25.4906 22.8539 25.6218 22.5813 24.9259 21.5232C23.885 19.9404 22.8127 18.381 21.6719 16.6927C20.5996 18.2198 19.5272 19.6238 18.5833 21.1216C17.9615 22.1036 18.298 22.722 19.3932 22.9858C19.8267 23.0913 20.263 23.1675 20.6965 23.2584L20.6737 23.4958C20.4313 23.5105 20.1917 23.5369 19.9493 23.5369H12.4887C10.6321 23.5369 10.2071 23.2438 9.49415 21.5232C9.15477 21.8017 8.82679 22.0801 8.48741 22.3439C7.69228 22.9847 6.763 23.4266 5.77304 23.6347C4.78309 23.8428 3.75962 23.8113 2.78355 23.5427C2.08365 23.4085 1.4432 23.0496 0.954317 22.5177C0.465431 21.9857 0.153304 21.3081 0.0628104 20.5823C-0.205271 19.0171 0.242483 17.7215 1.52585 16.7718C3.00315 15.6961 4.72001 15.2535 6.45683 14.893C7.41508 14.6937 8.38189 14.5501 9.43425 14.3654C9.40288 12.7826 9.66242 11.1646 9.1234 9.5994C8.69846 8.36247 7.79725 7.74987 6.48536 7.74694C5.92969 7.71352 5.37973 7.87766 4.92791 8.21179C4.47609 8.54592 4.14992 9.02969 4.00418 9.58182C3.80169 10.1974 3.77316 10.8744 3.61916 11.5134C3.57638 11.6981 3.38531 11.9795 3.25127 11.9853C2.35291 12.0264 1.45169 12.0088 0.550479 12.0088C0.550479 10.042 1.99642 8.17487 4.00418 7.53882C5.84588 6.95717 7.8169 6.97047 9.651 7.57693C11.6217 8.19832 12.5029 9.62871 12.52 12.0439C12.5372 15.0865 12.52 18.126 12.52 21.1685C12.52 22.5462 13.2473 23.1793 14.582 22.9272C15.5887 22.7878 16.512 22.2774 17.1801 21.491C18.5063 19.8495 19.801 18.1788 21.0844 16.5081C21.1358 16.4146 21.164 16.3095 21.1665 16.2021C21.1689 16.0948 21.1457 15.9884 21.0987 15.8925C19.4559 13.573 17.798 11.2643 16.1249 8.96627C15.8772 8.61723 15.5576 8.32877 15.1888 8.12152C14.82 7.91427 14.4112 7.79337 13.9916 7.76746C13.9127 7.75212 13.8387 7.71671 13.7764 7.6645C13.7142 7.61228 13.6656 7.5449 13.6351 7.46848H21.592L21.6205 7.65607C21.2983 7.70883 20.976 7.76452 20.6509 7.81435C19.5101 7.99021 19.3476 8.32143 19.975 9.2799C21.0017 10.8715 22.0712 12.4338 23.2462 14.1895C24.3869 12.5393 25.4906 11.0239 26.4859 9.42939C26.8995 8.76403 26.5829 8.23057 25.8015 7.98142C25.2967 7.82314 24.7662 7.74693 24.2443 7.63262L24.2671 7.45382H36.4221V21.1861C36.4221 22.6956 36.5989 22.8979 38.0676 23.0767C38.3528 23.1119 38.8319 23.3493 39.177 23.3698C23.0522 23.3991 39.0116 23.4138 23.0522 23.4138ZM23.5142 14.6204C25.291 17.0738 26.9993 19.4333 28.7019 21.7958C29.683 23.1529 31.0177 23.1851 32.4436 22.8539C33.1195 22.6956 33.4361 22.2677 33.4275 21.5349C33.4047 19.6238 33.4275 17.7245 33.4275 15.7987C33.4275 13.6912 33.4275 11.5838 33.4275 9.47628C33.4275 8.77282 33.245 8.12211 32.5121 8.01073C30.9292 7.7821 29.2694 7.68244 28.083 9.01903C26.4888 10.8099 25.0457 12.7445 23.5142 14.6204ZM9.46276 15.0073C9.01786 15.0689 8.66137 15.0953 8.32199 15.1656C6.89603 15.4587 5.47006 15.8192 4.32929 16.8217C3.78618 17.327 3.40496 17.9897 3.23591 18.7224C3.06687 19.455 3.11797 20.2231 3.38246 20.9252C3.85303 22.0332 4.91109 22.5725 6.37128 22.3908C7.51205 22.256 8.56156 21.8046 9.22321 20.8871C9.55689 20.424 9.45136 19.5974 9.46847 18.935C9.48558 17.6424 9.46276 16.3498 9.46276 15.0073Z" fill="#4552D9"/>
<path d="M38.8547 15.5261C38.8547 11.1119 41.5411 7.76453 45.6736 7.02589C49.8659 6.28724 54.0184 9.41474 54.603 13.7469C55.0793 17.2643 54.1467 20.2863 51.2834 22.4172C48.6967 24.3429 45.8647 24.469 43.0299 23.0034C40.2663 21.5613 39.0115 19.0874 38.8575 15.9687C38.8489 15.8222 38.8547 15.6756 38.8547 15.5261ZM51.4915 15.5261C51.4317 13.7264 51.3204 11.9179 50.5333 10.2501C49.7034 8.49144 48.3887 7.43625 46.418 7.52418C44.4901 7.60918 43.4377 8.86369 42.8131 10.5931C42.0174 12.806 41.9576 15.1099 42.2228 17.4021C42.3705 18.6108 42.6975 19.7891 43.1924 20.8959C43.9225 22.5344 45.2772 23.4636 47.0739 23.3991C48.8706 23.3346 49.9743 22.2091 50.6502 20.5735C51.3261 18.938 51.4231 17.2555 51.4915 15.5261Z" fill="#4552D9"/>
<path d="M33.1423 3.31803V0H36.3707V3.31803H33.1423Z" fill="#4552D9"/>
</g>
<defs>
<clipPath id="clip0_403:43346">
<rect width="54.72" height="24" fill="white"/>
</clipPath>
</defs>
</svg>
