<?xml version="1.0" encoding="utf-8"?>
<!-- Generator: Adobe Illustrator 24.3.0, SVG Export Plug-In . SVG Version: 6.00 Build 0)  -->
<svg version="1.1"
	 id="Kerned_tagline" inkscape:version="0.91 r13725" sodipodi:docname="Primary Horizontal.svg" xmlns:cc="http://creativecommons.org/ns#" xmlns:dc="http://purl.org/dc/elements/1.1/" xmlns:inkscape="http://www.inkscape.org/namespaces/inkscape" xmlns:rdf="http://www.w3.org/1999/02/22-rdf-syntax-ns#" xmlns:sodipodi="http://sodipodi.sourceforge.net/DTD/sodipodi-0.dtd" xmlns:svg="http://www.w3.org/2000/svg"
	 xmlns="http://www.w3.org/2000/svg" xmlns:xlink="http://www.w3.org/1999/xlink" x="0px" y="0px" viewBox="0 0 985.6 267.1"
	 style="enable-background:new 0 0 985.6 267.1;" xml:space="preserve">
<style type="text/css">
	.st0{fill:#808080;}
	.st1{fill-rule:evenodd;clip-rule:evenodd;fill:#ABABAB;}
	.st2{fill-rule:evenodd;clip-rule:evenodd;fill:#808080;}
	.st3{fill-rule:evenodd;clip-rule:evenodd;fill:#CCCCCC;}
	.st4{fill:#616161;}
	.st5{fill:#999999;}
	.st6{fill-rule:evenodd;clip-rule:evenodd;fill:#616161;}
	.st7{fill-rule:evenodd;clip-rule:evenodd;fill:#474747;}
	.st8{fill:#CCCCCC;}
	.st9{fill:#474747;}
	.st10{fill-rule:evenodd;clip-rule:evenodd;}
	.st11{fill-rule:evenodd;clip-rule:evenodd;fill:#EEB211;}
	.st12{fill-rule:evenodd;clip-rule:evenodd;fill:#FFFFAC;}
	.st13{fill:#ABABAB;}
	.st14{fill-rule:evenodd;clip-rule:evenodd;fill:#999999;}
	.st15{fill:#EEB211;}
	.st16{fill:#FAD94E;}
</style>
<sodipodi:namedview  bordercolor="#666666" borderopacity="1.0" fit-margin-bottom="0" fit-margin-left="0" fit-margin-right="0" fit-margin-top="0" id="base" inkscape:current-layer="layer1" inkscape:cx="469.57143" inkscape:cy="69.817951" inkscape:document-units="px" inkscape:pageopacity="0.0" inkscape:pageshadow="2" inkscape:window-height="697" inkscape:window-maximized="1" inkscape:window-width="1280" inkscape:window-x="-8" inkscape:window-y="-8" inkscape:zoom="0.35" pagecolor="#ffffff" showgrid="false">
	</sodipodi:namedview>
<g id="layer1" transform="translate(516,-268.25853)" inkscape:groupmode="layer" inkscape:label="Layer 1">
	<g id="g11118" transform="matrix(0.99889866,0,0,0.99889311,-513.57055,-446.56858)">
		<g id="g6214" transform="matrix(0.99100228,0,0,0.99100234,3765.0233,1161.4036)">
			<path id="path6216" inkscape:connector-curvature="0" d="M-3590.3-261.3h-15.2v15.9h15.2v-5.5l3.7,0.8v2.6c0,2-0.4,3.4-1.1,4.1
				s-2.1,1.1-4.1,1.1h-12.3c-2,0-3.4-0.4-4.1-1.1c-0.7-0.7-1.1-2.1-1.1-4.1v-11.6c0-2,0.4-3.4,1.1-4.1c0.7-0.7,2.1-1.1,4.1-1.1h12.3
				c2,0,3.3,0.4,4.1,1.1s1.1,2.1,1.1,4.1v2.1l-3.7,0.7V-261.3L-3590.3-261.3z"/>
			<path id="path6218" inkscape:connector-curvature="0" d="M-3577.1-245.1h15.1v-12.6h-15.1V-245.1z M-3580.5-256.1
				c0-1.6,0.3-2.8,0.9-3.4c0.6-0.6,1.8-0.9,3.5-0.9h13c1.7,0,2.9,0.3,3.5,0.9s0.9,1.7,0.9,3.4v9.5c0,1.6-0.3,2.8-0.9,3.4
				c-0.6,0.6-1.8,0.9-3.5,0.9h-13c-1.7,0-2.9-0.3-3.5-0.9c-0.6-0.6-0.9-1.7-0.9-3.4V-256.1L-3580.5-256.1z"/>
			<path id="path6220" inkscape:connector-curvature="0" d="M-3549.5-257c0,0.3,0,0.6,0,1.1c0,0.7,0,1.2,0,1.4v12.2h-2.8v-18h2.8
				l9,11.7l8.2-11.7h3.2v18h-3.2v-12.2c0-0.4,0-0.9,0-1.3s0.1-0.8,0.2-1.2c-0.2,0.6-0.4,1.1-0.6,1.5c-0.2,0.4-0.4,0.8-0.6,1
				l-6.9,9.3h-0.9l-7.2-9.2c-0.2-0.3-0.5-0.7-0.7-1.1C-3549.2-256-3549.4-256.5-3549.5-257L-3549.5-257z"/>
			<path id="path6222" inkscape:connector-curvature="0" d="M-3508.5-257.7h-10.3v5.7h10.3c0.8,0,1.3-0.1,1.6-0.4
				c0.3-0.3,0.5-0.7,0.5-1.3v-2.3c0-0.6-0.1-1.1-0.4-1.3C-3507.2-257.6-3507.7-257.7-3508.5-257.7L-3508.5-257.7z M-3522.2-242.3
				v-18h15.2c1.4,0,2.4,0.3,3,0.8s0.9,1.4,0.9,2.7v4c0,1.2-0.3,2.1-0.9,2.6c-0.6,0.5-1.6,0.8-3,0.8h-11.8v7.1L-3522.2-242.3
				L-3522.2-242.3z"/>
			<path id="path6224" inkscape:connector-curvature="0" d="M-3497.9-242.3v-18h18.2v2.7h-14.8v4.6h8.9v2.7h-8.9v5.4h14.9v2.6
				L-3497.9-242.3L-3497.9-242.3z"/>
			<path id="path6226" inkscape:connector-curvature="0" d="M-3466-257.7v15.4h-3.4v-15.4h-8.5v-2.7h20.5v2.7H-3466L-3466-257.7z"/>
			<path id="path6228" inkscape:connector-curvature="0" d="M-3450.5-242.3h-3.4v-18h3.4V-242.3z"/>
			<path id="path6230" inkscape:connector-curvature="0" d="M-3435.1-257.7v15.4h-3.4v-15.4h-8.5v-2.7h20.5v2.7H-3435.1
				L-3435.1-257.7z"/>
			<path id="path6232" inkscape:connector-curvature="0" d="M-3419.6-242.3h-3.4v-18h3.4V-242.3z"/>
			<path id="path6234" inkscape:connector-curvature="0" d="M-3405.8-242.3l-10.4-18h3.7l8.1,14.5l7.8-14.5h3.4l-9.9,18H-3405.8
				L-3405.8-242.3z"/>
			<path id="path6236" inkscape:connector-curvature="0" d="M-3389.7-242.3v-18h18.2v2.7h-14.8v4.6h8.9v2.7h-8.9v5.4h14.9v2.6
				L-3389.7-242.3L-3389.7-242.3z"/>
			<path id="path6238" inkscape:connector-curvature="0" d="M-3334.2-261.5h-12.6v7.7h12.6c0.9,0,1.5-0.2,1.9-0.5
				c0.3-0.3,0.5-0.9,0.5-1.7v-3.2c0-0.8-0.2-1.4-0.5-1.7C-3332.7-261.3-3333.3-261.5-3334.2-261.5L-3334.2-261.5z M-3350.4-242.3
				v-22h17.7c1.6,0,2.8,0.3,3.6,1c0.7,0.7,1.1,1.7,1.1,3.2v4.9c0,1.5-0.4,2.6-1.1,3.2c-0.7,0.7-1.9,1-3.6,1h-3.2l10,8.6h-5.4
				l-8.9-8.6h-6.5v8.6L-3350.4-242.3L-3350.4-242.3z"/>
			<path id="path6240" inkscape:connector-curvature="0" d="M-3318.1-245.1h15.1v-12.6h-15.1V-245.1z M-3321.5-256.1
				c0-1.6,0.3-2.8,0.9-3.4c0.6-0.6,1.8-0.9,3.5-0.9h13c1.7,0,2.9,0.3,3.5,0.9s0.9,1.7,0.9,3.4v9.5c0,1.6-0.3,2.8-0.9,3.4
				c-0.6,0.6-1.8,0.9-3.5,0.9h-13c-1.7,0-2.9-0.3-3.5-0.9c-0.6-0.6-0.9-1.7-0.9-3.4V-256.1L-3321.5-256.1z"/>
			<path id="path6242" inkscape:connector-curvature="0" d="M-3289.9-250.5v5.5h10.5c0.8,0,1.3-0.1,1.6-0.4c0.3-0.3,0.5-0.8,0.5-1.6
				v-1.4c0-0.7-0.2-1.3-0.5-1.6s-0.8-0.5-1.6-0.5H-3289.9L-3289.9-250.5z M-3277.5-254.6v-1.7c0-0.6-0.1-0.9-0.4-1.1
				c-0.3-0.2-0.8-0.3-1.5-0.3h-10.5v4.6h10.5c0.8,0,1.3-0.1,1.6-0.3C-3277.6-253.6-3277.5-254-3277.5-254.6L-3277.5-254.6z
				 M-3293.3-242.3v-18h15.2c1.4,0,2.4,0.3,3,0.9s0.9,1.4,0.9,2.7v2.1c0,1-0.2,1.7-0.7,2.2s-1.3,0.8-2.4,0.9
				c1.1,0.1,1.9,0.5,2.4,1.1c0.6,0.6,0.8,1.4,0.8,2.4v2.3c0,1.2-0.4,2.1-1.3,2.7c-0.9,0.6-2.2,0.9-3.9,0.9L-3293.3-242.3
				L-3293.3-242.3z"/>
			<path id="path6244" inkscape:connector-curvature="0" d="M-3264.9-245.1h15.1v-12.6h-15.1V-245.1z M-3268.3-256.1
				c0-1.6,0.3-2.8,0.9-3.4c0.6-0.6,1.8-0.9,3.5-0.9h13c1.7,0,2.9,0.3,3.5,0.9s0.9,1.7,0.9,3.4v9.5c0,1.6-0.3,2.8-0.9,3.4
				c-0.6,0.6-1.8,0.9-3.5,0.9h-13c-1.7,0-2.9-0.3-3.5-0.9c-0.6-0.6-0.9-1.7-0.9-3.4V-256.1L-3268.3-256.1z"/>
			<path id="path6246" inkscape:connector-curvature="0" d="M-3231.4-257.7v15.4h-3.4v-15.4h-8.5v-2.7h20.5v2.7H-3231.4
				L-3231.4-257.7z"/>
			<path id="path6248" inkscape:connector-curvature="0" d="M-3215.9-242.3h-3.4v-18h3.4V-242.3z"/>
			<path id="path6250" inkscape:connector-curvature="0" d="M-3193.5-257.7h-12.6v12.6h12.6v-4.3l3.4,0.6v2.1c0,1.6-0.3,2.8-0.9,3.4
				c-0.6,0.6-1.8,0.9-3.5,0.9h-10.6c-1.7,0-2.9-0.3-3.5-0.9c-0.6-0.6-0.9-1.7-0.9-3.4v-9.5c0-1.7,0.3-2.8,0.9-3.4
				c0.6-0.6,1.8-0.9,3.5-0.9h10.6c1.7,0,2.9,0.3,3.5,0.9s0.9,1.7,0.9,3.4v1.7l-3.4,0.6V-257.7L-3193.5-257.7z"/>
			<path id="path6252" inkscape:connector-curvature="0" d="M-3168.5-257.7h-12.7v4.7h11.6c1.7,0,2.8,0.3,3.4,0.9
				c0.6,0.6,0.9,1.7,0.9,3.4v2.2c0,1.7-0.3,2.8-0.9,3.4c-0.6,0.6-1.8,0.9-3.5,0.9h-11c-1.7,0-2.9-0.3-3.5-0.9
				c-0.6-0.6-0.9-1.7-0.9-3.4v-0.5l3.1-0.6v2.7h13.6v-5.1h-11.6c-1.7,0-2.9-0.3-3.5-0.9c-0.6-0.6-0.9-1.7-0.9-3.4v-1.7
				c0-1.6,0.3-2.8,0.9-3.4c0.6-0.6,1.8-0.9,3.5-0.9h10c1.7,0,2.8,0.3,3.5,0.9c0.6,0.6,1,1.6,1,3.1v0.4l-3.1,0.7L-3168.5-257.7
				L-3168.5-257.7z"/>
			<path id="path6254" inkscape:connector-curvature="0" d="M-3147.3-242.3l10.4-18h3.1l10.7,18h-3.7l-2.3-4.2h-12.5l-2.3,4.2
				H-3147.3L-3147.3-242.3z M-3140.1-249.2h9.6l-4.8-8.6L-3140.1-249.2L-3140.1-249.2z"/>
			<path id="path6256" inkscape:connector-curvature="0" d="M-3112.8-257.7v15.4h-3.4v-15.4h-8.5v-2.7h20.5v2.7H-3112.8
				L-3112.8-257.7z"/>
			<path id="path6258" inkscape:connector-curvature="0" d="M-3064.2-261.3h-17.2v15.9h17.2v-6.4h-8.9v-2.8h12.6v7.1
				c0,2-0.4,3.4-1.1,4.1c-0.7,0.7-2.1,1.1-4.1,1.1h-14.2c-2,0-3.4-0.4-4.1-1.1c-0.7-0.7-1.1-2.1-1.1-4.1v-11.6c0-2,0.4-3.4,1.1-4.1
				c0.7-0.7,2.1-1.1,4.1-1.1h14.2c2,0,3.3,0.4,4.1,1.1c0.7,0.7,1.1,2,1.1,3.9v0.5l-3.7,0.7L-3064.2-261.3L-3064.2-261.3z"/>
			<path id="path6260" inkscape:connector-curvature="0" d="M-3053-242.3v-18h18.2v2.7h-14.8v4.6h8.9v2.7h-8.9v5.4h14.9v2.6
				L-3053-242.3L-3053-242.3z"/>
			<path id="path6262" inkscape:connector-curvature="0" d="M-3026.8-245.1h15.1v-12.6h-15.1V-245.1z M-3030.2-256.1
				c0-1.6,0.3-2.8,0.9-3.4c0.6-0.6,1.8-0.9,3.5-0.9h13c1.7,0,2.9,0.3,3.5,0.9s0.9,1.7,0.9,3.4v9.5c0,1.6-0.3,2.8-0.9,3.4
				c-0.6,0.6-1.8,0.9-3.5,0.9h-13c-1.7,0-2.9-0.3-3.5-0.9c-0.6-0.6-0.9-1.7-0.9-3.4V-256.1L-3030.2-256.1z"/>
			<path id="path6264" inkscape:connector-curvature="0" d="M-2988.9-257.7h-9.6v5.8h9.6c0.8,0,1.3-0.1,1.5-0.4
				c0.3-0.2,0.4-0.7,0.4-1.5v-2.2c0-0.7-0.1-1.1-0.4-1.4C-2987.7-257.6-2988.2-257.7-2988.9-257.7L-2988.9-257.7z M-3001.9-242.3
				v-18h14.5c1.3,0,2.3,0.3,2.9,0.8c0.6,0.5,0.9,1.4,0.9,2.7v4c0,1.2-0.3,2.1-0.9,2.6c-0.6,0.5-1.5,0.8-2.9,0.8h-2.4l8,7.1h-4.6
				l-7.2-7.1h-4.9v7.1L-3001.9-242.3L-3001.9-242.3z"/>
			<path id="path6266" inkscape:connector-curvature="0" d="M-2960.1-257.7h-14.3v12.6h14.3v-4.9h-7.4v-2.5h10.8v5.8
				c0,1.6-0.3,2.8-0.9,3.4c-0.6,0.6-1.8,0.9-3.5,0.9h-12.2c-1.7,0-2.9-0.3-3.5-0.9c-0.6-0.6-0.9-1.7-0.9-3.4v-9.5
				c0-1.6,0.3-2.8,0.9-3.4c0.6-0.6,1.8-0.9,3.5-0.9h12.2c1.7,0,2.8,0.3,3.5,0.9c0.6,0.6,1,1.6,1,3.1v0.5l-3.4,0.6L-2960.1-257.7
				L-2960.1-257.7z"/>
			<path id="path6268" inkscape:connector-curvature="0" d="M-2947.4-242.3h-3.4v-18h3.4V-242.3z"/>
			<path id="path6270" inkscape:connector-curvature="0" d="M-2943.6-242.3l10.4-18h3.1l10.7,18h-3.7l-2.3-4.2h-12.5l-2.3,4.2
				H-2943.6L-2943.6-242.3z M-2936.5-249.2h9.6l-4.8-8.6L-2936.5-249.2L-2936.5-249.2z"/>
			<path id="path6272" inkscape:connector-curvature="0" d="M-2891-261.3v19h-3.7v-19h-10v-3h23.8v3H-2891L-2891-261.3z"/>
			<path id="path6274" inkscape:connector-curvature="0" d="M-2878.5-242.3v-18h18.2v2.7h-14.8v4.6h8.9v2.7h-8.9v5.4h14.9v2.6
				L-2878.5-242.3L-2878.5-242.3z"/>
			<path id="path6276" inkscape:connector-curvature="0" d="M-2839.6-257.7h-12.6v12.6h12.6v-4.3l3.4,0.6v2.1c0,1.6-0.3,2.8-0.9,3.4
				c-0.6,0.6-1.8,0.9-3.5,0.9h-10.6c-1.7,0-2.9-0.3-3.5-0.9c-0.6-0.6-0.9-1.7-0.9-3.4v-9.5c0-1.7,0.3-2.8,0.9-3.4
				c0.6-0.6,1.8-0.9,3.5-0.9h10.6c1.7,0,2.9,0.3,3.5,0.9s0.9,1.7,0.9,3.4v1.7l-3.4,0.6V-257.7L-2839.6-257.7z"/>
			<path id="path6278" inkscape:connector-curvature="0" d="M-2830.4-242.3v-18h3.4v7.2h14.4v-7.2h3.4v18h-3.4v-8h-14.4v8H-2830.4z"
				/>
		</g>
		<g id="g6280" transform="matrix(1.2818614,0,0,0.99100234,435.3547,-103.41269)">
			<g id="g6282">
				<path id="path6284" inkscape:connector-curvature="0" d="M-153.6,953h-27.2v14.5h27.2c2.1,0,3.5-0.3,4.3-0.9
					c0.8-0.6,1.2-1.7,1.2-3.2v-6.2c0-1.5-0.4-2.6-1.2-3.1C-150.1,953.4-151.5,953-153.6,953L-153.6,953z M-192.7,996v-52h44.5
					c4.1,0,7.1,0.8,9,2.4c1.9,1.6,2.8,4.1,2.8,7.7v12.2c0,3.5-0.9,6.1-2.8,7.7c-1.8,1.6-4.8,2.4-9,2.4h-6.8l24,19.6h-17.4l-21-19.6
					h-11.5V996L-192.7,996L-192.7,996z"/>
				<path id="path6286" inkscape:connector-curvature="0" d="M-119.9,987.9h34.3v-26.6h-34.3V987.9z M-130.3,963.5
					c0-3.9,0.8-6.5,2.3-7.9c1.5-1.4,4.4-2.1,8.8-2.1h33c4.4,0,7.3,0.7,8.8,2.1c1.5,1.4,2.3,4.1,2.3,7.9V986c0,3.9-0.8,6.6-2.3,8
					s-4.4,2.1-8.8,2.1h-33c-4.4,0-7.3-0.7-8.8-2.1c-1.5-1.4-2.3-4.1-2.3-8V963.5L-130.3,963.5z"/>
				<path id="path6288" inkscape:connector-curvature="0" d="M-69.2,996v-42.6h38.3c3.6,0,6.1,0.7,7.7,2s2.4,3.4,2.4,6.3v5.1
					c0,1.9-0.6,3.5-1.9,4.8c-1.2,1.2-3.1,2.1-5.4,2.5c2.4,0.4,4.2,1.3,5.6,2.8c1.3,1.4,2,3.2,2,5.4v5.5c0,2.8-1.1,4.9-3.3,6.3
					c-2.2,1.4-5.5,2.1-9.9,2.1L-69.2,996L-69.2,996z M-35.7,960.3H-59v10.1h23.3c1.8,0,3-0.2,3.7-0.7s1-1.2,1-2.4v-4
					c0-1.1-0.3-1.9-1-2.3C-32.6,960.6-33.9,960.3-35.7,960.3L-35.7,960.3z M-35.7,977.5H-59v10.9h23.3c2,0,3.3-0.3,4-0.8
					c0.7-0.6,1.1-1.5,1.1-3v-3.2c0-1.4-0.4-2.4-1.1-3C-32.4,977.8-33.7,977.5-35.7,977.5L-35.7,977.5z"/>
				<path id="path6290" inkscape:connector-curvature="0" d="M-5.6,987.9h34.3v-26.6H-5.6C-5.6,961.2-5.6,987.9-5.6,987.9z
					 M-15.9,963.5c0-3.9,0.8-6.5,2.3-7.9s4.4-2.1,8.8-2.1h33c4.4,0,7.3,0.7,8.8,2.1c1.5,1.4,2.3,4.1,2.3,7.9V986
					c0,3.9-0.8,6.6-2.3,8s-4.4,2.1-8.8,2.1h-33c-4.4,0-7.3-0.7-8.8-2.1c-1.5-1.4-2.3-4.1-2.3-8L-15.9,963.5L-15.9,963.5z"/>
				<path id="path6292" inkscape:connector-curvature="0" d="M56.5,996c-5.1,0-8.5-0.9-10.2-2.6c-1.8-1.7-2.7-5-2.7-9.7v-10.8
					l12.2-2.3v15.6h23.8V944h12.1v39.7c0,4.8-0.9,8-2.7,9.7c-1.8,1.7-5.2,2.6-10.2,2.6H56.5L56.5,996z"/>
				<path id="path6294" inkscape:connector-curvature="0" d="M93.1,996l25.3-42.6h10l25.7,42.6h-11.7l-5.4-9.3h-28.2l-5.4,9.3H93.1
					L93.1,996z M113.3,978.9h19.5l-9.9-17.8L113.3,978.9z"/>
				<path id="path6296" inkscape:connector-curvature="0" d="M194.1,961.3h-28v26.6h28v-9.1l10.5,2.1v5c0,3.9-0.8,6.5-2.3,8
					c-1.5,1.4-4.5,2.1-8.9,2.1h-26.6c-4.3,0-7.2-0.7-8.8-2.1c-1.5-1.4-2.3-4.1-2.3-8v-22.5c0-3.9,0.8-6.5,2.3-7.9s4.5-2.1,8.8-2.1
					h26.6c4.4,0,7.3,0.7,8.9,2.1c1.5,1.4,2.3,4.1,2.3,7.9v4.1l-10.5,1.5V961.3L194.1,961.3z"/>
				<path id="path6298" inkscape:connector-curvature="0" d="M211.3,996v-42.6h10.5v17.2l24.8-17.2h15.1l-29.5,19.7L265,996h-16.4
					l-26.8-19.2V996H211.3L211.3,996z"/>
				<path id="path6300" inkscape:connector-curvature="0" d="M269.9,996v-42.6h45.7v7.5h-35.2v9.3h20.5v7.3h-20.5V988h35.8v8H269.9
					L269.9,996z"/>
				<path id="path6302" inkscape:connector-curvature="0" d="M352.5,961.1v35h-10.4v-35h-20.6v-7.6h51.6v7.6H352.5L352.5,961.1z"/>
				<path id="path6304" inkscape:connector-curvature="0" d="M416.3,961.1H387v9h27.7c4.4,0,7.3,0.7,8.8,2.1c1.5,1.4,2.3,4,2.3,7.9
					v5.9c0,3.9-0.8,6.6-2.3,8s-4.5,2.1-8.8,2.1h-27.6c-4.4,0-7.4-0.7-9-2.1c-1.5-1.4-2.3-4.1-2.3-8v-1.2l9.2-1.7v5h31.3v-9.7h-27.6
					c-4.4,0-7.3-0.7-8.9-2.1c-1.5-1.4-2.3-4.1-2.3-8v-4.8c0-3.8,0.8-6.5,2.3-7.9s4.5-2.2,8.9-2.2H414c4.3,0,7.2,0.7,8.8,2.1
					c1.6,1.3,2.4,3.7,2.4,7.2v1l-9,1.9L416.3,961.1L416.3,961.1z"/>
			</g>
		</g>
	</g>
</g>
<polyline class="st0" points="144.9,132.9 144.6,133.6 130,132.7 130,132.1 "/>
<path id="path4400-7-6-7-02-9_2_" inkscape:connector-curvature="0" sodipodi:nodetypes="ccsc" class="st0" d="M140.8,115.9l0.1-6
	c0,0,3.3-0.2,3.3,3.1C144.2,116.5,140.8,115.9,140.8,115.9z"/>
<path id="path4286_4_" inkscape:connector-curvature="0" class="st1" d="M142.8,111.8c0.4,2.3-1.2,4.6-3.5,5l0,0
	c-2.3,0.4-4.6-1.2-5-3.5l0,0c-0.4-2.3,1.2-4.6,3.5-5l0,0C140.2,107.9,142.4,109.4,142.8,111.8L142.8,111.8z"/>
<path id="path4220_4_" inkscape:connector-curvature="0" class="st2" d="M35.8,134.1l-8.2,24.3c-3.1-0.2-6.4,0.3-9.3-0.6l6.8-20.6
	L35.8,134.1z"/>
<path id="path4252_2_" inkscape:connector-curvature="0" class="st2" d="M56.2,60.6C45.7,36,29.4,19.2,13.2-0.1l0.1,1.4
	c16,18.9,31.5,36.1,41.7,59.9L56.2,60.6L56.2,60.6z"/>
<g id="g4174_2_" transform="translate(-90.859083,52.184348)">
	<path id="path4176_2_" inkscape:connector-curvature="0" sodipodi:nodetypes="scccsccccccccs" class="st2" d="M197.7,0.9
		c-7.2,0-13.2,5.8-14.9,13.7v-0.1l-0.1,0.7c-0.3,1.3-0.3,2.6-0.3,3.9v0.2l0.9,53.9c0,0,10.1-4.3,17.6-5.8c8.5-0.2,15.4-7.7,15.4-17
		l-0.3-2.9c-1-6.2-4.8-11-10-13.1c4.3-3.2,7.2-8.8,7.2-15.4l-0.3-3.1C211.6,7.1,205.2,0.9,197.7,0.9z"/>
	<path id="path4178_2_" inkscape:connector-curvature="0" sodipodi:nodetypes="ccccscccccccc" class="st3" d="M204.4,2.6
		c-7.2,0-13.2,5.8-14.9,13.7c0,0,0-0.1-0.1-0.1l-0.1,0.7c-0.3,1.3-0.3,2.6-0.3,3.9V21l-4.7,53.3c0,0,15.6-3.6,23.1-5.2
		c8.3-1.5,15.4-7.7,15.4-17l-0.3-2.9c-0.9-6.2-4.8-11-10-13.1c4.3-3.2,7.2-8.8,7.2-15.4C219.3,11.6,213.3,2.8,204.4,2.6z"/>
</g>
<path id="path4400-7-6-1_2_" inkscape:connector-curvature="0" sodipodi:nodetypes="cccccccccccccc" class="st0" d="M128.4,130
	l-1.1,11.9l4.7,8.1l-0.2,7.5l1.8-1.5l0.9-10.5l-1.1-1.1l-1.5,1l0.1,2.6l-2.8-7l0.9-9l0.3-2.5L128.4,130z"/>
<path id="path4400-7-6-7-0_2_" inkscape:connector-curvature="0" sodipodi:nodetypes="cccc" class="st0" d="M145.2,117l-8.2,16
	l-0.2,0.1l4.6-17.4l1.1-0.3L145.2,117z"/>
<path id="path4400-7-6-7_2_" inkscape:connector-curvature="0" sodipodi:nodetypes="ccccc" class="st0" d="M146.1,119.2v3.7
	l-1.9,0.9l-2.7-4.7L146.1,119.2z"/>
<path id="path4188_2_" inkscape:connector-curvature="0" class="st1" d="M140.9,115.5l2.7,1.7l-6.9,15.8l-3.6-14.9l2.1-2.2
	L140.9,115.5L140.9,115.5z"/>
<path id="path4400-7-6_2_" inkscape:connector-curvature="0" sodipodi:nodetypes="ccccccccccccccc" class="st0" d="M141.6,122.8
	l6.7,4.4c2.8,0.4,3.6,3.3,2.1,5.2l-0.9,10.1l-8.2,10.5l-0.1,2.2l-0.9,1.3l-1.9,1.2l1.4-11.7l1.6-1.3l-0.2,3.3l6.4-4.8l1.5-12.9
	l-9.7-6.7L141.6,122.8z"/>
<g id="g4190_2_" transform="matrix(0.90478024,-0.15867388,0.15867388,0.90478024,-101.12999,127.81646)">
	<path id="path4192_2_" inkscape:connector-curvature="0" class="st1" d="M254.1,53.5l-10.5,0.2l-1.2,4.2l3.1,8.7l0.9-4l0.9,1.4
		l-3.1,11.6l-1-1.6l0.9-3.1L238.9,57l2.3-10.7c-0.2-3.3,1.5-4.4,4-4l9.4-3.1l2.9,0.7l-1.9,4.2l-10,1.7l-0.7,2.4l9.5,2.1L254.1,53.5
		L254.1,53.5z"/>
	<path id="path4194_2_" inkscape:connector-curvature="0" class="st1" d="M252.7,53.2l9.2,5.1l-0.9,4.3l-6.9,6.2l1-4l-1.5,0.8
		L251,77.2l1.6-0.9l0.7-3.2l11-9.9l3-10.6c1.7-2.7,0.8-4.6-1.7-5.4l-6.9-7.1l-2.9-0.8l-0.3,4.6l8.1,6.2l-1.1,2l-7.8-1.8L252.7,53.2z
		"/>
</g>
<path id="path4400-7-6-7-02-4_2_" inkscape:connector-curvature="0" sodipodi:nodetypes="ccccc" class="st4" d="M111.7,95l22.5-2.8
	l-3,3.3L117.5,97L111.7,95z"/>
<polygon id="rect4198_2_" class="st5" points="115.4,95.8 145.1,92.3 145.3,98.5 115.6,102 "/>
<g id="g4200_2_" transform="translate(-93.659083,44.598348)">
	<path id="path4202_2_" inkscape:connector-curvature="0" sodipodi:nodetypes="cccccc" class="st6" d="M143,87.7l7.4-5.5l13.5,19.6
		l-0.2,3.8l-5.4-5.7L143,87.7z"/>
	<path id="path4204_2_" inkscape:connector-curvature="0" class="st1" d="M144.4,87.3l6.5-11l15.1,12l-3.9,13.9l-3.3-3.5L144.4,87.3
		z"/>
</g>
<path id="path4214_2_" inkscape:connector-curvature="0" sodipodi:nodetypes="czcc" class="st7" d="M28.3,163.1
	c0.4,2.4-0.6,5.1-4.5,5.1c-6.2,0-7.6-3.8-7.3-7.6C18.9,160.5,25.7,162.5,28.3,163.1L28.3,163.1z"/>
<path id="path4220_3_" inkscape:connector-curvature="0" class="st1" d="M34.1,135.9l-8.2,24.3c-3.1-0.2-6.4,0.3-9.3-0.6l6.8-20.6
	L34.1,135.9z"/>
<path id="path4222_2_" inkscape:connector-curvature="0" class="st7" d="M124.7,173.4c0,14.5-11.2,26.3-24.9,26.3
	s-24.9-11.8-24.9-26.3s11.2-26.3,24.9-26.3S124.6,158.9,124.7,173.4L124.7,173.4z"/>
<path id="path4224_2_" inkscape:connector-curvature="0" class="st8" d="M100.7,129c5,5.8,2.3,15.5-6,21.6
	c-8.3,6.1-19.2,6.3-24.1,0.4l0,0c-5-5.8-2.3-15.5,6-21.6C84.9,123.3,95.8,123.1,100.7,129z"/>
<path id="path4226_2_" inkscape:connector-curvature="0" class="st9" d="M97.4,130.2c4.1,4.9,1.9,13-5,18
	c-6.9,5.1-15.8,5.2-19.9,0.3c-4.1-4.9-1.9-13,5-18C84.3,125.4,93.3,125.3,97.4,130.2C97.4,130.1,97.4,130.1,97.4,130.2z"/>
<path id="path4244_2_" inkscape:connector-curvature="0" sodipodi:nodetypes="cccccccc" class="st7" d="M59.2,202.4l6.4,3.4
	l36.7,13.4l11.3,1.4l-8.2-7.1l-24.2-8.8l-16.5-4.7L59.2,202.4z"/>
<path id="path4246_2_" inkscape:connector-curvature="0" class="st7" d="M107.7,218.1l-41.9,49.3l-0.9-64.2
	C81.1,206.1,91,209.6,107.7,218.1z"/>
<path id="path4248_2_" inkscape:connector-curvature="0" sodipodi:nodetypes="cccccc" class="st10" d="M92.8,211.1l8.2,3.7
	l-36.1,1.9l-5-2.8l0.4-1.3L92.8,211.1z"/>
<path id="path4254_2_" inkscape:connector-curvature="0" sodipodi:nodetypes="ccccc" class="st10" d="M63.4,201.6l-4.2,0.8L73,162.7
	l4.5-3.6L63.4,201.6z"/>
<path id="path4258_2_" inkscape:connector-curvature="0" sodipodi:nodetypes="ccccc" class="st11" d="M63.4,201.6l14.1-42.5
	l17.5,3.3l-14.5,43.4L63.4,201.6z"/>
<path id="path4260_2_" inkscape:connector-curvature="0" sodipodi:nodetypes="ccccc" class="st12" d="M104.4,214.9l14.5-43.8
	l-23.8-8.7l-14.5,43.5L104.4,214.9z"/>
<path id="path4262_2_" inkscape:connector-curvature="0" sodipodi:nodetypes="ccccc" class="st11" d="M113.7,220.6l-9.4-5.8
	l14.5-43.8l9.1,7L113.7,220.6z"/>
<path id="path4400-7-6-7-02_2_" inkscape:connector-curvature="0" sodipodi:nodetypes="ccccc" class="st0" d="M144.6,98.3l-0.6,10.6
	l-1,1.5l0.8-12.4L144.6,98.3z"/>
<path id="rect4278_2_" class="st13" d="M135.3,95.8l8.6,0.5c0.1,0,0.1,0.1,0.1,0.1l-0.9,13.7c0,0.1-0.1,0.1-0.1,0.1l-8.6-0.5
	c-0.1,0-0.1-0.1-0.1-0.1L135.3,95.8C135.2,95.9,135.2,95.8,135.3,95.8z"/>
<polygon id="rect4280_2_" class="st8" points="130,119.1 144.2,119.5 144.2,123.7 130,123.3 "/>
<g id="g4282_2_" transform="matrix(0.90478024,-0.15867388,0.15867388,0.90478024,-61.055079,113.78173)">
	<path id="path4284_2_" inkscape:connector-curvature="0" class="st14" d="M214.7,31.9c1.3,1.5,1.4-0.5,2.1,1.3s-0.8,0.5-0.6,2.5
		c0.2,2,1.5,0.4,0.9,2.3c-0.4,1.9-0.9-0.1-1.9,1.6c-1,1.7,0.9,1.2-0.6,2.5s-0.7-0.6-2.5,0.2c-1.8,0.8,0,1.5-1.9,1.6
		c-2,0.2-0.3-0.9-2.1-1.4c-1.9-0.4-0.9,1.2-2.5,0.2c-1.7-1,0.3-0.9-0.9-2.3c-1.3-1.5-1.4,0.5-2.1-1.3c-0.8-1.8,0.8-0.5,0.6-2.5
		s-1.5-0.4-0.9-2.3c0.4-1.9,0.9,0.1,1.9-1.6c1-1.7-0.9-1.2,0.6-2.5c1.5-1.3,0.7,0.6,2.5-0.2c1.8-0.8,0-1.5,1.9-1.6
		c2-0.2,0.3,0.9,2.1,1.4c1.9,0.4,0.9-1.2,2.5-0.2C215.4,30.6,213.4,30.4,214.7,31.9L214.7,31.9z"/>
	<path id="path4286_3_" inkscape:connector-curvature="0" class="st6" d="M213.3,36.2c0,2.1-1.6,3.7-3.7,3.7l0,0
		c-2.1,0-3.7-1.6-3.7-3.7l0,0c0-2.1,1.6-3.7,3.7-3.7l0,0C211.7,32.4,213.3,34.2,213.3,36.2L213.3,36.2z"/>
</g>
<g id="g4292_2_" transform="matrix(0.96313857,-0.16890836,0.16890836,0.96313857,-155.31986,88.220911)">
	<path id="path4294_2_" inkscape:connector-curvature="0" class="st2" d="M303.2,57.9c0,4.5-3.6,8.1-8.1,8.1l0,0
		c-4.5,0-8.1-3.6-8.1-8.1l0,0c0-4.5,3.6-8.1,8.1-8.1l0,0C299.6,49.8,303.2,53.4,303.2,57.9L303.2,57.9z"/>
	<path id="path4296_2_" inkscape:connector-curvature="0" class="st3" d="M298.6,58c0,2.1-1.6,3.7-3.7,3.7l0,0
		c-2.1,0-3.7-1.6-3.7-3.7l0,0c0-2.1,1.6-3.7,3.7-3.7l0,0C297,54.2,298.6,55.9,298.6,58L298.6,58z"/>
</g>
<path id="path4218-1_2_" inkscape:connector-curvature="0" sodipodi:nodetypes="czccc" class="st2" d="M16.8,158.6
	c-0.9,3.4-0.5,5,1.5,6.3c2,1.2,5.3,0.7,8,0.3c3-0.3,1.9-4.7,1.5-6.9C24.3,158.8,20.5,159.1,16.8,158.6L16.8,158.6z"/>
<path id="path4304_2_" inkscape:connector-curvature="0" sodipodi:nodetypes="cccssccsccsccc" class="st14" d="M38.2,156.6
	c0.5,2.3,0,8.5-0.9,10.7c-0.9,2.2,0.4,1.9-2.1,2.7c-2.6,0.9-0.7-0.7-3.3-0.9c-2.7-0.3-1,1.6-3.4,0.3c-2.4-1.2,0.1-0.9-1.7-3
	s-1.9,0.4-2.7-2.1s0.7-0.6,0.9-3.3c0.3-2.7-1.6-1-0.3-3.4c1.2-2.4,0.9,0.1,3-1.7c2.1-1.8-0.4-1.9,2.1-2.7s0.7,0.7,3.3,0.9
	c2.7,0.3,1-1.6,3.4-0.3C39,154.8,37.7,154.3,38.2,156.6z"/>
<path id="path4306_2_" inkscape:connector-curvature="0" d="M35.2,161.3c0.1,1.8-1.4,3.3-3.2,3.4c-1.8,0.1-3.3-1.4-3.4-3.2
	c0-0.1,0-0.2,0-0.2c-0.1-1.8,1.4-3.3,3.2-3.4c1.8-0.1,3.3,1.4,3.4,3.2C35.2,161.1,35.2,161.2,35.2,161.3z"/>
<path id="path4314_2_" inkscape:connector-curvature="0" sodipodi:nodetypes="cccccc" class="st1" d="M47.8,162h7.8l-0.1,2.3
	l-2.9,2.3l-7.7-2.4L47.8,162z"/>
<g id="g4316_2_" transform="translate(32.786421,86.716148)">
	<path id="path4320_2_" inkscape:connector-curvature="0" sodipodi:nodetypes="cccccc" class="st1" d="M3.7,90.2l7.8-2.6l-2-11.9
		l2.4-12.7l-9.2,2.1L3.7,90.2z"/>
	<path id="path4322_2_" inkscape:connector-curvature="0" sodipodi:nodetypes="ccccc" class="st1" d="M10.1,90.3l4.6-2.4l5.9-8.7
		c0,0-2.5,0.3-3.1,0.3L10.1,90.3z"/>
</g>
<polygon class="st2" points="52.6,164.2 44.8,164.2 44.8,166.7 46.4,166.7 42.8,172 40.5,172 39.2,163.8 32.8,164.2 34.8,177 
	39,177 41.3,177 42.8,177 42.9,177 50.2,166.7 52.6,166.7 "/>
<path id="path4334_2_" inkscape:connector-curvature="0" sodipodi:nodetypes="cccc" class="st2" d="M47.8,156.9l-1.5,2.2h-1.7
	L47.8,156.9z"/>
<path id="path4336_2_" inkscape:connector-curvature="0" sodipodi:nodetypes="cccccc" class="st1" d="M47.8,156.9h7.8v2.5l-3,2.2
	l-4.7-2.2L47.8,156.9L47.8,156.9z"/>
<path id="path4344_2_" inkscape:connector-curvature="0" sodipodi:nodetypes="ccccc" class="st14" d="M37.7,146.5H46l-3.3,2.2
	l-8.2-0.1L37.7,146.5z"/>
<path id="path4346_2_" inkscape:connector-curvature="0" class="st3" d="M42.5,148.8l3.4-2.1l7.4,10.3l-3.4,2.1L42.5,148.8z"/>
<path id="path4348_2_" inkscape:connector-curvature="0" class="st2" d="M34.5,148.8l-2,12.8h6.5l1.2-7.8h2.2l3.6,5.3h-1.5v2.5h7.7
	v-2.5h-2.4l-7.4-10.3h-0.1H41h-2.3C38.7,148.8,34.5,148.8,34.5,148.8z"/>
<g id="g4356_2_" transform="matrix(0.86331,0,0,1,-44.439083,21.161648)">
	<path id="path4358_2_" inkscape:connector-curvature="0" class="st7" d="M97.2,141.3c0,2.3-1.9,4.2-4.2,4.2l0,0
		c-2.3,0-4.2-1.9-4.2-4.2l0,0c0-2.3,1.9-4.2,4.2-4.2l0,0C95.3,137.1,97.2,139,97.2,141.3L97.2,141.3z"/>
	<path id="path4362_2_" inkscape:connector-curvature="0" class="st3" d="M95.8,141.3c0,1.5-1.3,2.8-2.8,2.8l0,0
		c-1.5,0-2.8-1.3-2.8-2.8l0,0c0-1.5,1.3-2.8,2.8-2.8l0,0C94.5,138.6,95.8,139.8,95.8,141.3L95.8,141.3z"/>
</g>
<path id="path4372_2_" inkscape:connector-curvature="0" sodipodi:nodetypes="ccccc" class="st14" d="M66.3,131.2l9.9-7l8.8,10.3
	c1.3,5.9-3.2,9.1-8.7,7.6L66.3,131.2z"/>
<path id="path4378_2_" inkscape:connector-curvature="0" sodipodi:nodetypes="cscsc" class="st6" d="M76.7,125.8
	c0.2,2.4-2.3,5.2-5.5,6.1c-3.2,0.9-5.3,0.1-5.4-2.3c-0.2-2.4,1.9-5.4,5.1-6.4C74,122.2,76.6,123.4,76.7,125.8L76.7,125.8z"/>
<path id="path4380_2_" inkscape:connector-curvature="0" class="st5" d="M53.3,107.9l3.3-2.6l16.3,20.6c-0.2,1.5-1.3,2.5-3.3,2.6
	L53.3,107.9z"/>
<path id="path4382_2_" inkscape:connector-curvature="0" sodipodi:nodetypes="ccccc" class="st14" d="M70.3,151
	c10.6,8.9,35-0.9,31-21.1l3.4,6.4c3,14-16.7,25.7-28.4,19.9L70.3,151z"/>
<path id="path4414_2_" inkscape:connector-curvature="0" sodipodi:nodetypes="ccccc" class="st9" d="M69.1,174.1
	c11.2-2.2,48.8,10.3,53.9,18.6l-4.6,13.7c-9.5-8.7-42.2-20.6-54-18.6L69.1,174.1z"/>
<path id="path4426_2_" inkscape:connector-curvature="0" sodipodi:nodetypes="ccccccc" d="M91.4,176.2l0.9,1.4l-4.8,13.9l-11.3-2.9
	l-0.4-1.3l10-1.1L91.4,176.2z"/>
<path id="path4430_2_" inkscape:connector-curvature="0" sodipodi:nodetypes="ccccc" class="st4" d="M80.6,173.9l10.8,2.3l-4.7,13.7
	l-10.8-2.7L80.6,173.9z"/>
<path id="path4432_2_" inkscape:connector-curvature="0" sodipodi:nodetypes="ccccccc" d="M76.2,172.9l0.9,1.4l-5.3,13.6
	c-2.4-0.2-4.7-0.3-7.4,0l-0.6-1.3l6.1-6.7L76.2,172.9z"/>
<path id="path4458_2_" inkscape:connector-curvature="0" class="st1" d="M86.1,134.3c2.2,1.9,2.1-0.9,3.5,1.5
	c1.4,2.5-1.1,0.7-0.8,3.4s2.4,0.9,1.6,3.4c-0.7,2.5-1.4-0.3-3.1,1.6c-1.7,2,1.2,2.2-1.2,3.3c-2.4,1-0.9-1.2-3.6-1.2
	c-2.7,0-0.6,2.2-3.3,1.2c-2.7-1,0.2-1.4-2.1-3.3s-2.1,0.9-3.5-1.5s1.1-0.7,0.8-3.4c-0.3-2.7-2.4-0.9-1.6-3.4
	c0.7-2.6,1.4,0.3,3.1-1.6s-1.2-2.2,1.2-3.3c2.4-1,0.9,1.2,3.6,1.2c2.7,0,0.6-2.2,3.3-1.2S83.9,132.4,86.1,134.3L86.1,134.3z"/>
<path id="path4460_2_" inkscape:connector-curvature="0" class="st3" d="M86.1,139.1c0.5,2.4-1,4.5-3.3,4.6c-2.4,0.2-4.7-1.5-5.2-4
	l0,0c-0.5-2.4,1-4.5,3.3-4.6C83.2,134.9,85.5,136.7,86.1,139.1z"/>
<path id="path4426-1-3_2_" inkscape:connector-curvature="0" sodipodi:nodetypes="ccccccc" d="M98.4,178.1l-1.5,0.9l-5.2,13.7
	l11.2,4.5l1.5-0.7l-9.2-7L98.4,178.1z"/>
<path id="path4422-0_2_" inkscape:connector-curvature="0" sodipodi:nodetypes="ccccc" class="st5" d="M98.3,178.2l11.1,4.6
	l-5.2,13.7l-11-4.5L98.3,178.2z"/>
<path id="path4426-1-3-7_2_" inkscape:connector-curvature="0" sodipodi:nodetypes="ccccccc" d="M114,184.8l-1.8,0.3l-5.5,14
	l8.3,4.6l1.5-0.6l-6.9-7.4L114,184.8z"/>
<path id="path4418_2_" inkscape:connector-curvature="0" sodipodi:nodetypes="ccccc" class="st4" d="M114,184.8l7.2,5.1l-4.7,13.4
	l-8.1-4.6L114,184.8z"/>
<path id="path4430-4_2_" inkscape:connector-curvature="0" sodipodi:nodetypes="ccccc" class="st9" d="M68.8,173.1l7.4-0.2
	l-5.2,13.7l-7.2-0.2L68.8,173.1z"/>
<path id="path4426-9_2_" inkscape:connector-curvature="0" sodipodi:nodetypes="ccccccc" d="M122.7,192.3l1.5,0.1l-4.6,13.8
	c0,0.3-0.4,0.6-1.3,0.6l0.2-0.4l-0.9-0.8L122.7,192.3z"/>
<path id="path4418-5_2_" inkscape:connector-curvature="0" sodipodi:nodetypes="ccccc" class="st9" d="M124.2,192.4l0.1,1.6
	l-4.7,12.3l-0.6-0.6L124.2,192.4z"/>
<path id="path4248-0_2_" inkscape:connector-curvature="0" sodipodi:nodetypes="ccccccc" class="st10" d="M105.5,220.8l3.7,2.5
	l-0.6,1.2l-43.2,2.2l-5-2.4L61,223L105.5,220.8z"/>
<path id="path4248-0-1_2_" inkscape:connector-curvature="0" sodipodi:nodetypes="ccccccc" class="st10" d="M96.6,231.2l3.7,2.6
	l-0.5,1.2l-34.4,1.8l-5.1-2.7l0.6-1.2L96.6,231.2z"/>
<path id="path4248-0-1-3_2_" inkscape:connector-curvature="0" sodipodi:nodetypes="ccccccc" class="st10" d="M87.6,241.9l3.4,2.6
	l-0.5,1.2l-25.1,1.3l-4.6-2.4l0.5-1.3L87.6,241.9z"/>
<path id="path4248-0-1-3-2_2_" inkscape:connector-curvature="0" sodipodi:nodetypes="ccccccc" class="st10" d="M78.5,252.3l3.5,2.6
	l-0.5,1.2l-15.9,0.7l-4.2-2.4l0.5-1.3L78.5,252.3z"/>
<path id="path4400_2_" inkscape:connector-curvature="0" sodipodi:nodetypes="ccccc" class="st5" d="M93.4,101.7l15.5-5.7l-2.2,8.4
	l-17.5,5.7L93.4,101.7z"/>
<path id="path4392_2_" inkscape:connector-curvature="0" class="st6" d="M94.8,139.9h1.5l3.9,7.5h-1.5L94.8,139.9z"/>
<path class="st14" d="M97.9,107.6"/>
<path id="path4228_2_" inkscape:connector-curvature="0" class="st5" d="M85,125.5l1.8-1.4l8.8,11.2c-0.1,0.9-0.7,1.4-1.8,1.4
	L85,125.5z"/>
<g id="g4230_2_" transform="translate(-229.64347,-16.351332)">
	<path id="path4232_2_" inkscape:connector-curvature="0" class="st10" d="M321,138.5c0.6,1,1.1-0.5,1.4,0.8
		c0.3,1.3-0.8,0.3-0.9,1.7c-0.1,1.4,1.1,0.1,0.6,1.5c-0.5,1.4-0.8,0-1.5,1.3c-0.9,1.3,0.8,0.6-0.3,1.8c-1.1,1.1-0.5-0.4-1.8,0.5
		c-1.3,0.9,0.3,1-1.2,1.6c-1.4,0.6-0.2-0.7-1.6-0.4c-1.5,0.3-0.3,1.1-1.7,1s0.3-0.8-0.9-1.2c-1.2-0.4-0.9,0.9-1.8,0.2
		c-0.9-0.8,0.6-0.7,0-1.7c-0.6-1-1.1,0.5-1.4-0.8c-0.3-1.3,0.8-0.3,0.9-1.7s-1.1-0.1-0.6-1.5c0.5-1.4,0.8,0,1.5-1.3
		c0.9-1.3-0.8-0.6,0.3-1.8c1.1-1.1,0.5,0.4,1.8-0.5c1.3-0.9-0.3-1,1.2-1.6c1.4-0.6,0.2,0.7,1.6,0.4c1.5-0.3,0.3-1.1,1.7-1
		c1.4,0.1-0.3,0.8,0.9,1.2c1.2,0.4,0.9-0.9,1.8-0.2C321.9,137.5,320.4,137.4,321,138.5L321,138.5z"/>
	<path id="path4234_2_" inkscape:connector-curvature="0" class="st10" d="M317.8,141.7c-0.3,1.1-1.5,2-2.6,2l0,0
		c-1.1,0-1.8-0.9-1.5-2l0,0c0.3-1.1,1.5-2,2.6-2l0,0C317.5,139.7,318.2,140.6,317.8,141.7L317.8,141.7z"/>
</g>
<path id="path4238_2_" inkscape:connector-curvature="0" sodipodi:nodetypes="ccccc" class="st5" d="M75,112.5l1.8-1.4l10.5,13.7
	c-0.1,0.9-0.7,1.4-1.8,1.4L75,112.5z"/>
<path id="path4444_2_" inkscape:connector-curvature="0" class="st15" d="M88.4,80c0.9,5.9,1.5,11.1,0,17
	c-0.9,7.4-14.4,17.2-32,31.5c-5.1,4.1-11.5,5.8-16.2,5.8c-2.2,0-4.1,1.1-6,1.2L88.4,80z"/>
<path id="path4446_2_" inkscape:connector-curvature="0" class="st10" d="M18.9,95.8l30-31.5c-12.4-5.1-15-3.5-26.2,8.2
	c-5.3,6.4-10.7,9-6.5,20.4L18.9,95.8L18.9,95.8z"/>
<path id="path4448_2_" inkscape:connector-curvature="0" sodipodi:nodetypes="ccccc" class="st16" d="M83.9,94.1
	c16.8-18.7-11.9-40.4-31.6-33.2c-21.5,8.9-50.6,43.5-49,66.1c0.7,8.3,2.9,14.3,11.3,15.4C38.5,144.7,68.6,110.7,83.9,94.1L83.9,94.1
	z"/>
<path id="path4452_2_" inkscape:connector-curvature="0" class="st10" d="M49.5,70.1c10.5-7.5,23.7-2,23.5,11.2
	c0.3,3.2-1.3,5.4-3.1,7.9c-5.2,7.1-13.7,14-22.2,15.7c-4.4,1.1-8.6-0.3-12.2-2.9c-2.3-2-3.1-4.7-2.2-9.5
	C36,84.2,41.8,75.7,49.5,70.1L49.5,70.1z"/>
<polygon class="st7" points="105.4,140.1 102.3,134.3 98.6,108.4 91.3,110.7 96.4,139.9 100.2,147.3 "/>
<polygon class="st6" points="89.2,110.1 107.2,104.3 107.3,105.7 91.3,110.7 96.4,139.9 94.8,139.9 "/>
<path id="path4456_2_" inkscape:connector-curvature="0" class="st2" d="M64.2,62.7C55.1,38.4,49.6,22,33,2.7l0.2,1.5
	c16.1,19.6,20.6,34.2,29.7,58.6C63.5,63.6,63.8,63.2,64.2,62.7L64.2,62.7z"/>
<path id="path4470_2_" inkscape:connector-curvature="0" class="st6" d="M119,94.1c1.5,1.7,1.6-0.8,2.7,1.3c0.9,2.1-1.1,0.6-0.7,2.8
	c0.4,2.2,1.8,0.2,1.6,2.4c-0.2,2.2-1.3,0-2.1,2.1c-0.8,2.1,1.5,1,0.3,2.9c-1.3,1.9-1-0.7-2.8,0.8c-1.7,1.5,0.8,1.6-1.3,2.6
	c-2.1,0.9-0.6-1.1-2.8-0.7c-2.2,0.4-0.2,1.8-2.4,1.6c-2.2-0.2,0-1.3-2.1-2c-2.1-0.8-1,1.5-2.9,0.3c-1.9-1.3,0.7-1-0.9-2.7
	c-1.5-1.7-1.6,0.8-2.7-1.3c-0.9-2.1,1.1-0.6,0.7-2.8c-0.4-2.2-1.8-0.2-1.6-2.4c0.2-2.2,1.3,0,2.1-2.1c0.8-2.1-1.5-1-0.3-2.9
	c1.3-1.9,1,0.7,2.8-0.8c1.7-1.5-0.8-1.6,1.3-2.6c2.1-0.9,0.6,1.1,2.8,0.7c2.2-0.4,0.2-1.8,2.4-1.6c2.2,0.2,0,1.3,2.1,2
	c2.1,0.8,1-1.5,2.9-0.3S117.6,92.4,119,94.1L119,94.1z"/>
<path id="path4472_2_" inkscape:connector-curvature="0" class="st3" d="M117.3,99.8c0,2.7-2.2,4.9-5,4.9l0,0c-2.7,0-5-2.2-5-4.9
	l0,0c0-2.7,2.2-4.9,5-4.9l0,0C115.1,94.9,117.3,97.1,117.3,99.8L117.3,99.8z"/>
</svg>
