<?xml version="1.0" encoding="UTF-8" standalone="no"?>
<!-- Created with Inkscape (http://www.inkscape.org/) -->

<svg
   width="11in"
   height="5.5in"
   viewBox="0 0 279.4 139.7"
   version="1.1"
   id="svg1"
   xml:space="preserve"
   inkscape:version="1.3.1 (91b66b0783, 2023-11-16)"
   sodipodi:docname="RJExp.svg"
   xmlns:inkscape="http://www.inkscape.org/namespaces/inkscape"
   xmlns:sodipodi="http://sodipodi.sourceforge.net/DTD/sodipodi-0.dtd"
   xmlns="http://www.w3.org/2000/svg"
   xmlns:svg="http://www.w3.org/2000/svg"><sodipodi:namedview
     id="namedview1"
     pagecolor="#ffffff"
     bordercolor="#000000"
     borderopacity="0.25"
     inkscape:showpageshadow="2"
     inkscape:pageopacity="0.0"
     inkscape:pagecheckerboard="0"
     inkscape:deskcolor="#d1d1d1"
     inkscape:document-units="mm"
     inkscape:zoom="0.82106903"
     inkscape:cx="396.43439"
     inkscape:cy="400.08816"
     inkscape:window-width="1920"
     inkscape:window-height="1171"
     inkscape:window-x="-9"
     inkscape:window-y="-9"
     inkscape:window-maximized="1"
     inkscape:current-layer="layer1" /><defs
     id="defs1" /><g
     inkscape:label="Layer 1"
     inkscape:groupmode="layer"
     id="layer1"><text
       xml:space="preserve"
       style="font-size:3.175px;fill:none;stroke:#000000;stroke-width:0.0254;paint-order:stroke markers fill"
       x="12.659016"
       y="179.49837"
       id="text1"><tspan
         sodipodi:role="line"
         id="tspan1"
         style="stroke-width:0.0254"
         x="12.659016"
         y="179.49837" /></text><text
       xml:space="preserve"
       style="font-style:normal;font-variant:normal;font-weight:normal;font-stretch:normal;font-size:8.46667px;font-family:Arial;-inkscape-font-specification:Arial;fill:#000000;fill-opacity:1;stroke:#000000;stroke-width:0.0254;paint-order:stroke markers fill"
       x="42.895844"
       y="123.11525"
       id="text2"><tspan
         sodipodi:role="line"
         id="tspan2"
         style="font-size:8.46667px;fill:#000000;fill-opacity:1;stroke-width:0.0254"
         x="42.895844"
         y="123.11525">President</tspan></text><text
       xml:space="preserve"
       style="font-style:normal;font-variant:normal;font-weight:normal;font-stretch:normal;font-size:8.46667px;font-family:Arial;-inkscape-font-specification:Arial;fill:#000000;fill-opacity:1;stroke:#000000;stroke-width:0.0254;paint-order:stroke markers fill"
       x="105.51762"
       y="123.2186"
       id="text3"><tspan
         sodipodi:role="line"
         id="tspan3"
         style="font-size:8.46667px;stroke-width:0.0254"
         x="105.51762"
         y="123.2186">IT Coordinator</tspan></text><text
       xml:space="preserve"
       style="font-style:normal;font-variant:normal;font-weight:normal;font-stretch:normal;font-size:8.46667px;font-family:Arial;-inkscape-font-specification:Arial;fill:#000000;fill-opacity:1;stroke:#000000;stroke-width:0.0254;paint-order:stroke markers fill"
       x="185.04222"
       y="123.14005"
       id="text4"><tspan
         sodipodi:role="line"
         id="tspan4"
         style="font-size:8.46667px;stroke-width:0.0254"
         x="185.04222"
         y="123.14005">3lb Project Manager</tspan></text><path
       style="fill:none;fill-opacity:1;stroke:#000000;stroke-width:0.705556;stroke-dasharray:none;paint-order:stroke markers fill"
       d="M 59.614861,113.50957 V 98.041931"
       id="path7" /><path
       style="fill:none;fill-opacity:1;stroke:#000000;stroke-width:0.705556;stroke-dasharray:none;paint-order:stroke markers fill"
       d="M 221.73862,113.50957 V 98.041931"
       id="path7-2" /><path
       style="fill:none;fill-opacity:1;stroke:#000000;stroke-width:0.705556;stroke-dasharray:none;paint-order:stroke markers fill"
       d="M 135.43529,113.50957 V 98.041931"
       id="path7-5" /><path
       style="fill:none;fill-opacity:1;stroke:#000000;stroke-width:0.705556;stroke-dasharray:none;paint-order:stroke markers fill"
       d="M 58.970376,98.283961 H 221.70283"
       id="path8" /><path
       style="fill:none;fill-opacity:1;stroke:#000000;stroke-width:0.705556;stroke-dasharray:none;paint-order:stroke markers fill"
       d="M 135.34184,97.961721 V 84.427531"
       id="path9" /><g
       id="g9"
       transform="matrix(0.26458333,0,0,0.26458333,7.0290036,20.225272)"><g
         id="layer1-2"
         transform="translate(516,-268.25853)"
         inkscape:label="Layer 1">
	<g
   id="g11118"
   transform="matrix(0.99889866,0,0,0.99889311,-513.57055,-446.56858)">
		<g
   id="g6214"
   transform="matrix(0.99100228,0,0,0.99100234,3765.0233,1161.4036)">
			<path
   id="path6216"
   inkscape:connector-curvature="0"
   d="m -3590.3,-261.3 h -15.2 v 15.9 h 15.2 v -5.5 l 3.7,0.8 v 2.6 c 0,2 -0.4,3.4 -1.1,4.1 -0.7,0.7 -2.1,1.1 -4.1,1.1 h -12.3 c -2,0 -3.4,-0.4 -4.1,-1.1 -0.7,-0.7 -1.1,-2.1 -1.1,-4.1 v -11.6 c 0,-2 0.4,-3.4 1.1,-4.1 0.7,-0.7 2.1,-1.1 4.1,-1.1 h 12.3 c 2,0 3.3,0.4 4.1,1.1 0.8,0.7 1.1,2.1 1.1,4.1 v 2.1 l -3.7,0.7 z" />
			<path
   id="path6218"
   inkscape:connector-curvature="0"
   d="m -3577.1,-245.1 h 15.1 v -12.6 h -15.1 z m -3.4,-11 c 0,-1.6 0.3,-2.8 0.9,-3.4 0.6,-0.6 1.8,-0.9 3.5,-0.9 h 13 c 1.7,0 2.9,0.3 3.5,0.9 0.6,0.6 0.9,1.7 0.9,3.4 v 9.5 c 0,1.6 -0.3,2.8 -0.9,3.4 -0.6,0.6 -1.8,0.9 -3.5,0.9 h -13 c -1.7,0 -2.9,-0.3 -3.5,-0.9 -0.6,-0.6 -0.9,-1.7 -0.9,-3.4 z" />
			<path
   id="path6220"
   inkscape:connector-curvature="0"
   d="m -3549.5,-257 c 0,0.3 0,0.6 0,1.1 0,0.7 0,1.2 0,1.4 v 12.2 h -2.8 v -18 h 2.8 l 9,11.7 8.2,-11.7 h 3.2 v 18 h -3.2 v -12.2 c 0,-0.4 0,-0.9 0,-1.3 0,-0.4 0.1,-0.8 0.2,-1.2 -0.2,0.6 -0.4,1.1 -0.6,1.5 -0.2,0.4 -0.4,0.8 -0.6,1 l -6.9,9.3 h -0.9 l -7.2,-9.2 c -0.2,-0.3 -0.5,-0.7 -0.7,-1.1 -0.2,-0.5 -0.4,-1 -0.5,-1.5 z" />
			<path
   id="path6222"
   inkscape:connector-curvature="0"
   d="m -3508.5,-257.7 h -10.3 v 5.7 h 10.3 c 0.8,0 1.3,-0.1 1.6,-0.4 0.3,-0.3 0.5,-0.7 0.5,-1.3 v -2.3 c 0,-0.6 -0.1,-1.1 -0.4,-1.3 -0.4,-0.3 -0.9,-0.4 -1.7,-0.4 z m -13.7,15.4 v -18 h 15.2 c 1.4,0 2.4,0.3 3,0.8 0.6,0.5 0.9,1.4 0.9,2.7 v 4 c 0,1.2 -0.3,2.1 -0.9,2.6 -0.6,0.5 -1.6,0.8 -3,0.8 h -11.8 v 7.1 z" />
			<path
   id="path6224"
   inkscape:connector-curvature="0"
   d="m -3497.9,-242.3 v -18 h 18.2 v 2.7 h -14.8 v 4.6 h 8.9 v 2.7 h -8.9 v 5.4 h 14.9 v 2.6 z" />
			<path
   id="path6226"
   inkscape:connector-curvature="0"
   d="m -3466,-257.7 v 15.4 h -3.4 v -15.4 h -8.5 v -2.7 h 20.5 v 2.7 z" />
			<path
   id="path6228"
   inkscape:connector-curvature="0"
   d="m -3450.5,-242.3 h -3.4 v -18 h 3.4 z" />
			<path
   id="path6230"
   inkscape:connector-curvature="0"
   d="m -3435.1,-257.7 v 15.4 h -3.4 v -15.4 h -8.5 v -2.7 h 20.5 v 2.7 z" />
			<path
   id="path6232"
   inkscape:connector-curvature="0"
   d="m -3419.6,-242.3 h -3.4 v -18 h 3.4 z" />
			<path
   id="path6234"
   inkscape:connector-curvature="0"
   d="m -3405.8,-242.3 -10.4,-18 h 3.7 l 8.1,14.5 7.8,-14.5 h 3.4 l -9.9,18 z" />
			<path
   id="path6236"
   inkscape:connector-curvature="0"
   d="m -3389.7,-242.3 v -18 h 18.2 v 2.7 h -14.8 v 4.6 h 8.9 v 2.7 h -8.9 v 5.4 h 14.9 v 2.6 z" />
			<path
   id="path6238"
   inkscape:connector-curvature="0"
   d="m -3334.2,-261.5 h -12.6 v 7.7 h 12.6 c 0.9,0 1.5,-0.2 1.9,-0.5 0.3,-0.3 0.5,-0.9 0.5,-1.7 v -3.2 c 0,-0.8 -0.2,-1.4 -0.5,-1.7 -0.4,-0.4 -1,-0.6 -1.9,-0.6 z m -16.2,19.2 v -22 h 17.7 c 1.6,0 2.8,0.3 3.6,1 0.7,0.7 1.1,1.7 1.1,3.2 v 4.9 c 0,1.5 -0.4,2.6 -1.1,3.2 -0.7,0.7 -1.9,1 -3.6,1 h -3.2 l 10,8.6 h -5.4 l -8.9,-8.6 h -6.5 v 8.6 z" />
			<path
   id="path6240"
   inkscape:connector-curvature="0"
   d="m -3318.1,-245.1 h 15.1 v -12.6 h -15.1 z m -3.4,-11 c 0,-1.6 0.3,-2.8 0.9,-3.4 0.6,-0.6 1.8,-0.9 3.5,-0.9 h 13 c 1.7,0 2.9,0.3 3.5,0.9 0.6,0.6 0.9,1.7 0.9,3.4 v 9.5 c 0,1.6 -0.3,2.8 -0.9,3.4 -0.6,0.6 -1.8,0.9 -3.5,0.9 h -13 c -1.7,0 -2.9,-0.3 -3.5,-0.9 -0.6,-0.6 -0.9,-1.7 -0.9,-3.4 z" />
			<path
   id="path6242"
   inkscape:connector-curvature="0"
   d="m -3289.9,-250.5 v 5.5 h 10.5 c 0.8,0 1.3,-0.1 1.6,-0.4 0.3,-0.3 0.5,-0.8 0.5,-1.6 v -1.4 c 0,-0.7 -0.2,-1.3 -0.5,-1.6 -0.3,-0.3 -0.8,-0.5 -1.6,-0.5 z m 12.4,-4.1 v -1.7 c 0,-0.6 -0.1,-0.9 -0.4,-1.1 -0.3,-0.2 -0.8,-0.3 -1.5,-0.3 h -10.5 v 4.6 h 10.5 c 0.8,0 1.3,-0.1 1.6,-0.3 0.2,-0.2 0.3,-0.6 0.3,-1.2 z m -15.8,12.3 v -18 h 15.2 c 1.4,0 2.4,0.3 3,0.9 0.6,0.6 0.9,1.4 0.9,2.7 v 2.1 c 0,1 -0.2,1.7 -0.7,2.2 -0.5,0.5 -1.3,0.8 -2.4,0.9 1.1,0.1 1.9,0.5 2.4,1.1 0.6,0.6 0.8,1.4 0.8,2.4 v 2.3 c 0,1.2 -0.4,2.1 -1.3,2.7 -0.9,0.6 -2.2,0.9 -3.9,0.9 z" />
			<path
   id="path6244"
   inkscape:connector-curvature="0"
   d="m -3264.9,-245.1 h 15.1 v -12.6 h -15.1 z m -3.4,-11 c 0,-1.6 0.3,-2.8 0.9,-3.4 0.6,-0.6 1.8,-0.9 3.5,-0.9 h 13 c 1.7,0 2.9,0.3 3.5,0.9 0.6,0.6 0.9,1.7 0.9,3.4 v 9.5 c 0,1.6 -0.3,2.8 -0.9,3.4 -0.6,0.6 -1.8,0.9 -3.5,0.9 h -13 c -1.7,0 -2.9,-0.3 -3.5,-0.9 -0.6,-0.6 -0.9,-1.7 -0.9,-3.4 z" />
			<path
   id="path6246"
   inkscape:connector-curvature="0"
   d="m -3231.4,-257.7 v 15.4 h -3.4 v -15.4 h -8.5 v -2.7 h 20.5 v 2.7 z" />
			<path
   id="path6248"
   inkscape:connector-curvature="0"
   d="m -3215.9,-242.3 h -3.4 v -18 h 3.4 z" />
			<path
   id="path6250"
   inkscape:connector-curvature="0"
   d="m -3193.5,-257.7 h -12.6 v 12.6 h 12.6 v -4.3 l 3.4,0.6 v 2.1 c 0,1.6 -0.3,2.8 -0.9,3.4 -0.6,0.6 -1.8,0.9 -3.5,0.9 h -10.6 c -1.7,0 -2.9,-0.3 -3.5,-0.9 -0.6,-0.6 -0.9,-1.7 -0.9,-3.4 v -9.5 c 0,-1.7 0.3,-2.8 0.9,-3.4 0.6,-0.6 1.8,-0.9 3.5,-0.9 h 10.6 c 1.7,0 2.9,0.3 3.5,0.9 0.6,0.6 0.9,1.7 0.9,3.4 v 1.7 l -3.4,0.6 z" />
			<path
   id="path6252"
   inkscape:connector-curvature="0"
   d="m -3168.5,-257.7 h -12.7 v 4.7 h 11.6 c 1.7,0 2.8,0.3 3.4,0.9 0.6,0.6 0.9,1.7 0.9,3.4 v 2.2 c 0,1.7 -0.3,2.8 -0.9,3.4 -0.6,0.6 -1.8,0.9 -3.5,0.9 h -11 c -1.7,0 -2.9,-0.3 -3.5,-0.9 -0.6,-0.6 -0.9,-1.7 -0.9,-3.4 v -0.5 l 3.1,-0.6 v 2.7 h 13.6 v -5.1 h -11.6 c -1.7,0 -2.9,-0.3 -3.5,-0.9 -0.6,-0.6 -0.9,-1.7 -0.9,-3.4 v -1.7 c 0,-1.6 0.3,-2.8 0.9,-3.4 0.6,-0.6 1.8,-0.9 3.5,-0.9 h 10 c 1.7,0 2.8,0.3 3.5,0.9 0.6,0.6 1,1.6 1,3.1 v 0.4 l -3.1,0.7 z" />
			<path
   id="path6254"
   inkscape:connector-curvature="0"
   d="m -3147.3,-242.3 10.4,-18 h 3.1 l 10.7,18 h -3.7 l -2.3,-4.2 h -12.5 l -2.3,4.2 z m 7.2,-6.9 h 9.6 l -4.8,-8.6 z" />
			<path
   id="path6256"
   inkscape:connector-curvature="0"
   d="m -3112.8,-257.7 v 15.4 h -3.4 v -15.4 h -8.5 v -2.7 h 20.5 v 2.7 z" />
			<path
   id="path6258"
   inkscape:connector-curvature="0"
   d="m -3064.2,-261.3 h -17.2 v 15.9 h 17.2 v -6.4 h -8.9 v -2.8 h 12.6 v 7.1 c 0,2 -0.4,3.4 -1.1,4.1 -0.7,0.7 -2.1,1.1 -4.1,1.1 h -14.2 c -2,0 -3.4,-0.4 -4.1,-1.1 -0.7,-0.7 -1.1,-2.1 -1.1,-4.1 v -11.6 c 0,-2 0.4,-3.4 1.1,-4.1 0.7,-0.7 2.1,-1.1 4.1,-1.1 h 14.2 c 2,0 3.3,0.4 4.1,1.1 0.7,0.7 1.1,2 1.1,3.9 v 0.5 l -3.7,0.7 z" />
			<path
   id="path6260"
   inkscape:connector-curvature="0"
   d="m -3053,-242.3 v -18 h 18.2 v 2.7 h -14.8 v 4.6 h 8.9 v 2.7 h -8.9 v 5.4 h 14.9 v 2.6 z" />
			<path
   id="path6262"
   inkscape:connector-curvature="0"
   d="m -3026.8,-245.1 h 15.1 v -12.6 h -15.1 z m -3.4,-11 c 0,-1.6 0.3,-2.8 0.9,-3.4 0.6,-0.6 1.8,-0.9 3.5,-0.9 h 13 c 1.7,0 2.9,0.3 3.5,0.9 0.6,0.6 0.9,1.7 0.9,3.4 v 9.5 c 0,1.6 -0.3,2.8 -0.9,3.4 -0.6,0.6 -1.8,0.9 -3.5,0.9 h -13 c -1.7,0 -2.9,-0.3 -3.5,-0.9 -0.6,-0.6 -0.9,-1.7 -0.9,-3.4 z" />
			<path
   id="path6264"
   inkscape:connector-curvature="0"
   d="m -2988.9,-257.7 h -9.6 v 5.8 h 9.6 c 0.8,0 1.3,-0.1 1.5,-0.4 0.3,-0.2 0.4,-0.7 0.4,-1.5 v -2.2 c 0,-0.7 -0.1,-1.1 -0.4,-1.4 -0.3,-0.2 -0.8,-0.3 -1.5,-0.3 z m -13,15.4 v -18 h 14.5 c 1.3,0 2.3,0.3 2.9,0.8 0.6,0.5 0.9,1.4 0.9,2.7 v 4 c 0,1.2 -0.3,2.1 -0.9,2.6 -0.6,0.5 -1.5,0.8 -2.9,0.8 h -2.4 l 8,7.1 h -4.6 l -7.2,-7.1 h -4.9 v 7.1 z" />
			<path
   id="path6266"
   inkscape:connector-curvature="0"
   d="m -2960.1,-257.7 h -14.3 v 12.6 h 14.3 v -4.9 h -7.4 v -2.5 h 10.8 v 5.8 c 0,1.6 -0.3,2.8 -0.9,3.4 -0.6,0.6 -1.8,0.9 -3.5,0.9 h -12.2 c -1.7,0 -2.9,-0.3 -3.5,-0.9 -0.6,-0.6 -0.9,-1.7 -0.9,-3.4 v -9.5 c 0,-1.6 0.3,-2.8 0.9,-3.4 0.6,-0.6 1.8,-0.9 3.5,-0.9 h 12.2 c 1.7,0 2.8,0.3 3.5,0.9 0.6,0.6 1,1.6 1,3.1 v 0.5 l -3.4,0.6 z" />
			<path
   id="path6268"
   inkscape:connector-curvature="0"
   d="m -2947.4,-242.3 h -3.4 v -18 h 3.4 z" />
			<path
   id="path6270"
   inkscape:connector-curvature="0"
   d="m -2943.6,-242.3 10.4,-18 h 3.1 l 10.7,18 h -3.7 l -2.3,-4.2 h -12.5 l -2.3,4.2 z m 7.1,-6.9 h 9.6 l -4.8,-8.6 z" />
			<path
   id="path6272"
   inkscape:connector-curvature="0"
   d="m -2891,-261.3 v 19 h -3.7 v -19 h -10 v -3 h 23.8 v 3 z" />
			<path
   id="path6274"
   inkscape:connector-curvature="0"
   d="m -2878.5,-242.3 v -18 h 18.2 v 2.7 h -14.8 v 4.6 h 8.9 v 2.7 h -8.9 v 5.4 h 14.9 v 2.6 z" />
			<path
   id="path6276"
   inkscape:connector-curvature="0"
   d="m -2839.6,-257.7 h -12.6 v 12.6 h 12.6 v -4.3 l 3.4,0.6 v 2.1 c 0,1.6 -0.3,2.8 -0.9,3.4 -0.6,0.6 -1.8,0.9 -3.5,0.9 h -10.6 c -1.7,0 -2.9,-0.3 -3.5,-0.9 -0.6,-0.6 -0.9,-1.7 -0.9,-3.4 v -9.5 c 0,-1.7 0.3,-2.8 0.9,-3.4 0.6,-0.6 1.8,-0.9 3.5,-0.9 h 10.6 c 1.7,0 2.9,0.3 3.5,0.9 0.6,0.6 0.9,1.7 0.9,3.4 v 1.7 l -3.4,0.6 z" />
			<path
   id="path6278"
   inkscape:connector-curvature="0"
   d="m -2830.4,-242.3 v -18 h 3.4 v 7.2 h 14.4 v -7.2 h 3.4 v 18 h -3.4 v -8 h -14.4 v 8 z" />
		</g>
		<g
   id="g6280"
   transform="matrix(1.2818614,0,0,0.99100234,435.3547,-103.41269)">
			<g
   id="g6282">
				<path
   id="path6284"
   inkscape:connector-curvature="0"
   d="m -153.6,953 h -27.2 v 14.5 h 27.2 c 2.1,0 3.5,-0.3 4.3,-0.9 0.8,-0.6 1.2,-1.7 1.2,-3.2 v -6.2 c 0,-1.5 -0.4,-2.6 -1.2,-3.1 -0.8,-0.7 -2.2,-1.1 -4.3,-1.1 z m -39.1,43 v -52 h 44.5 c 4.1,0 7.1,0.8 9,2.4 1.9,1.6 2.8,4.1 2.8,7.7 v 12.2 c 0,3.5 -0.9,6.1 -2.8,7.7 -1.8,1.6 -4.8,2.4 -9,2.4 h -6.8 l 24,19.6 h -17.4 l -21,-19.6 h -11.5 V 996 Z" />
				<path
   id="path6286"
   inkscape:connector-curvature="0"
   d="m -119.9,987.9 h 34.3 v -26.6 h -34.3 z m -10.4,-24.4 c 0,-3.9 0.8,-6.5 2.3,-7.9 1.5,-1.4 4.4,-2.1 8.8,-2.1 h 33 c 4.4,0 7.3,0.7 8.8,2.1 1.5,1.4 2.3,4.1 2.3,7.9 V 986 c 0,3.9 -0.8,6.6 -2.3,8 -1.5,1.4 -4.4,2.1 -8.8,2.1 h -33 c -4.4,0 -7.3,-0.7 -8.8,-2.1 -1.5,-1.4 -2.3,-4.1 -2.3,-8 z" />
				<path
   id="path6288"
   inkscape:connector-curvature="0"
   d="m -69.2,996 v -42.6 h 38.3 c 3.6,0 6.1,0.7 7.7,2 1.6,1.3 2.4,3.4 2.4,6.3 v 5.1 c 0,1.9 -0.6,3.5 -1.9,4.8 -1.2,1.2 -3.1,2.1 -5.4,2.5 2.4,0.4 4.2,1.3 5.6,2.8 1.3,1.4 2,3.2 2,5.4 v 5.5 c 0,2.8 -1.1,4.9 -3.3,6.3 -2.2,1.4 -5.5,2.1 -9.9,2.1 z m 33.5,-35.7 H -59 v 10.1 h 23.3 c 1.8,0 3,-0.2 3.7,-0.7 0.7,-0.5 1,-1.2 1,-2.4 v -4 c 0,-1.1 -0.3,-1.9 -1,-2.3 -0.6,-0.4 -1.9,-0.7 -3.7,-0.7 z m 0,17.2 H -59 v 10.9 h 23.3 c 2,0 3.3,-0.3 4,-0.8 0.7,-0.6 1.1,-1.5 1.1,-3 v -3.2 c 0,-1.4 -0.4,-2.4 -1.1,-3 -0.7,-0.6 -2,-0.9 -4,-0.9 z" />
				<path
   id="path6290"
   inkscape:connector-curvature="0"
   d="M -5.6,987.9 H 28.7 V 961.3 H -5.6 c 0,-0.1 0,26.6 0,26.6 z m -10.3,-24.4 c 0,-3.9 0.8,-6.5 2.3,-7.9 1.5,-1.4 4.4,-2.1 8.8,-2.1 h 33 c 4.4,0 7.3,0.7 8.8,2.1 1.5,1.4 2.3,4.1 2.3,7.9 V 986 c 0,3.9 -0.8,6.6 -2.3,8 -1.5,1.4 -4.4,2.1 -8.8,2.1 h -33 c -4.4,0 -7.3,-0.7 -8.8,-2.1 -1.5,-1.4 -2.3,-4.1 -2.3,-8 z" />
				<path
   id="path6292"
   inkscape:connector-curvature="0"
   d="m 56.5,996 c -5.1,0 -8.5,-0.9 -10.2,-2.6 -1.8,-1.7 -2.7,-5 -2.7,-9.7 v -10.8 l 12.2,-2.3 v 15.6 H 79.6 V 944 h 12.1 v 39.7 c 0,4.8 -0.9,8 -2.7,9.7 -1.8,1.7 -5.2,2.6 -10.2,2.6 z" />
				<path
   id="path6294"
   inkscape:connector-curvature="0"
   d="m 93.1,996 25.3,-42.6 h 10 l 25.7,42.6 h -11.7 l -5.4,-9.3 h -28.2 l -5.4,9.3 z m 20.2,-17.1 h 19.5 l -9.9,-17.8 z" />
				<path
   id="path6296"
   inkscape:connector-curvature="0"
   d="m 194.1,961.3 h -28 v 26.6 h 28 v -9.1 l 10.5,2.1 v 5 c 0,3.9 -0.8,6.5 -2.3,8 -1.5,1.4 -4.5,2.1 -8.9,2.1 h -26.6 c -4.3,0 -7.2,-0.7 -8.8,-2.1 -1.5,-1.4 -2.3,-4.1 -2.3,-8 v -22.5 c 0,-3.9 0.8,-6.5 2.3,-7.9 1.5,-1.4 4.5,-2.1 8.8,-2.1 h 26.6 c 4.4,0 7.3,0.7 8.9,2.1 1.5,1.4 2.3,4.1 2.3,7.9 v 4.1 l -10.5,1.5 z" />
				<path
   id="path6298"
   inkscape:connector-curvature="0"
   d="m 211.3,996 v -42.6 h 10.5 v 17.2 l 24.8,-17.2 h 15.1 L 232.2,973.1 265,996 H 248.6 L 221.8,976.8 V 996 Z" />
				<path
   id="path6300"
   inkscape:connector-curvature="0"
   d="m 269.9,996 v -42.6 h 45.7 v 7.5 h -35.2 v 9.3 h 20.5 v 7.3 H 280.4 V 988 h 35.8 v 8 z" />
				<path
   id="path6302"
   inkscape:connector-curvature="0"
   d="m 352.5,961.1 v 35 h -10.4 v -35 h -20.6 v -7.6 h 51.6 v 7.6 z" />
				<path
   id="path6304"
   inkscape:connector-curvature="0"
   d="M 416.3,961.1 H 387 v 9 h 27.7 c 4.4,0 7.3,0.7 8.8,2.1 1.5,1.4 2.3,4 2.3,7.9 v 5.9 c 0,3.9 -0.8,6.6 -2.3,8 -1.5,1.4 -4.5,2.1 -8.8,2.1 h -27.6 c -4.4,0 -7.4,-0.7 -9,-2.1 -1.5,-1.4 -2.3,-4.1 -2.3,-8 v -1.2 l 9.2,-1.7 v 5 h 31.3 v -9.7 h -27.6 c -4.4,0 -7.3,-0.7 -8.9,-2.1 -1.5,-1.4 -2.3,-4.1 -2.3,-8 v -4.8 c 0,-3.8 0.8,-6.5 2.3,-7.9 1.5,-1.4 4.5,-2.2 8.9,-2.2 H 414 c 4.3,0 7.2,0.7 8.8,2.1 1.6,1.3 2.4,3.7 2.4,7.2 v 1 l -9,1.9 z" />
			</g>
		</g>
	</g>
</g><polyline
         class="st0"
         points="144.9,132.9 144.6,133.6 130,132.7 130,132.1 "
         id="polyline1-5" /><path
         id="path4400-7-6-7-02-9_2_"
         inkscape:connector-curvature="0"
         sodipodi:nodetypes="ccsc"
         class="st0"
         d="m 140.8,115.9 0.1,-6 c 0,0 3.3,-0.2 3.3,3.1 0,3.5 -3.4,2.9 -3.4,2.9 z" /><path
         id="path4286_4_"
         inkscape:connector-curvature="0"
         class="st1"
         d="m 142.8,111.8 c 0.4,2.3 -1.2,4.6 -3.5,5 v 0 c -2.3,0.4 -4.6,-1.2 -5,-3.5 v 0 c -0.4,-2.3 1.2,-4.6 3.5,-5 v 0 c 2.4,-0.4 4.6,1.1 5,3.5 z" /><path
         id="path4220_4_"
         inkscape:connector-curvature="0"
         class="st2"
         d="m 35.8,134.1 -8.2,24.3 c -3.1,-0.2 -6.4,0.3 -9.3,-0.6 l 6.8,-20.6 z" /><path
         id="path4252_2_"
         inkscape:connector-curvature="0"
         class="st2"
         d="M 56.2,60.6 C 45.7,36 29.4,19.2 13.2,-0.1 l 0.1,1.4 c 16,18.9 31.5,36.1 41.7,59.9 z" /><g
         id="g4174_2_"
         transform="translate(-90.859083,52.184348)">
	<path
   id="path4176_2_"
   inkscape:connector-curvature="0"
   sodipodi:nodetypes="scccsccccccccs"
   class="st2"
   d="m 197.7,0.9 c -7.2,0 -13.2,5.8 -14.9,13.7 v -0.1 l -0.1,0.7 c -0.3,1.3 -0.3,2.6 -0.3,3.9 v 0.2 l 0.9,53.9 c 0,0 10.1,-4.3 17.6,-5.8 8.5,-0.2 15.4,-7.7 15.4,-17 L 216,47.5 c -1,-6.2 -4.8,-11 -10,-13.1 4.3,-3.2 7.2,-8.8 7.2,-15.4 l -0.3,-3.1 c -1.3,-8.8 -7.7,-15 -15.2,-15 z" />
	<path
   id="path4178_2_"
   inkscape:connector-curvature="0"
   sodipodi:nodetypes="ccccscccccccc"
   class="st3"
   d="m 204.4,2.6 c -7.2,0 -13.2,5.8 -14.9,13.7 0,0 0,-0.1 -0.1,-0.1 l -0.1,0.7 C 189,18.2 189,19.5 189,20.8 V 21 l -4.7,53.3 c 0,0 15.6,-3.6 23.1,-5.2 8.3,-1.5 15.4,-7.7 15.4,-17 l -0.3,-2.9 c -0.9,-6.2 -4.8,-11 -10,-13.1 4.3,-3.2 7.2,-8.8 7.2,-15.4 -0.4,-9.1 -6.4,-17.9 -15.3,-18.1 z" />
</g><path
         id="path4400-7-6-1_2_"
         inkscape:connector-curvature="0"
         sodipodi:nodetypes="cccccccccccccc"
         class="st0"
         d="m 128.4,130 -1.1,11.9 4.7,8.1 -0.2,7.5 1.8,-1.5 0.9,-10.5 -1.1,-1.1 -1.5,1 0.1,2.6 -2.8,-7 0.9,-9 0.3,-2.5 z" /><path
         id="path4400-7-6-7-0_2_"
         inkscape:connector-curvature="0"
         sodipodi:nodetypes="cccc"
         class="st0"
         d="m 145.2,117 -8.2,16 -0.2,0.1 4.6,-17.4 1.1,-0.3 z" /><path
         id="path4400-7-6-7_2_"
         inkscape:connector-curvature="0"
         sodipodi:nodetypes="ccccc"
         class="st0"
         d="m 146.1,119.2 v 3.7 l -1.9,0.9 -2.7,-4.7 z" /><path
         id="path4188_2_"
         inkscape:connector-curvature="0"
         class="st1"
         d="m 140.9,115.5 2.7,1.7 -6.9,15.8 -3.6,-14.9 2.1,-2.2 z" /><path
         id="path4400-7-6_2_"
         inkscape:connector-curvature="0"
         sodipodi:nodetypes="ccccccccccccccc"
         class="st0"
         d="m 141.6,122.8 6.7,4.4 c 2.8,0.4 3.6,3.3 2.1,5.2 l -0.9,10.1 -8.2,10.5 -0.1,2.2 -0.9,1.3 -1.9,1.2 1.4,-11.7 1.6,-1.3 -0.2,3.3 6.4,-4.8 1.5,-12.9 -9.7,-6.7 z" /><g
         id="g4190_2_"
         transform="matrix(0.90478024,-0.15867388,0.15867388,0.90478024,-101.12999,127.81646)">
	<path
   id="path4192_2_"
   inkscape:connector-curvature="0"
   class="st1"
   d="m 254.1,53.5 -10.5,0.2 -1.2,4.2 3.1,8.7 0.9,-4 0.9,1.4 -3.1,11.6 -1,-1.6 0.9,-3.1 -5.2,-13.9 2.3,-10.7 c -0.2,-3.3 1.5,-4.4 4,-4 l 9.4,-3.1 2.9,0.7 -1.9,4.2 -10,1.7 -0.7,2.4 9.5,2.1 z" />
	<path
   id="path4194_2_"
   inkscape:connector-curvature="0"
   class="st1"
   d="m 252.7,53.2 9.2,5.1 -0.9,4.3 -6.9,6.2 1,-4 -1.5,0.8 -2.6,11.6 1.6,-0.9 0.7,-3.2 11,-9.9 3,-10.6 c 1.7,-2.7 0.8,-4.6 -1.7,-5.4 l -6.9,-7.1 -2.9,-0.8 -0.3,4.6 8.1,6.2 -1.1,2 -7.8,-1.8 z" />
</g><path
         id="path4400-7-6-7-02-4_2_"
         inkscape:connector-curvature="0"
         sodipodi:nodetypes="ccccc"
         class="st4"
         d="m 111.7,95 22.5,-2.8 -3,3.3 -13.7,1.5 z" /><polygon
         id="rect4198_2_"
         class="st5"
         points="115.4,95.8 145.1,92.3 145.3,98.5 115.6,102 " /><g
         id="g4200_2_"
         transform="translate(-93.659083,44.598348)">
	<path
   id="path4202_2_"
   inkscape:connector-curvature="0"
   sodipodi:nodetypes="cccccc"
   class="st6"
   d="m 143,87.7 7.4,-5.5 13.5,19.6 -0.2,3.8 -5.4,-5.7 z" />
	<path
   id="path4204_2_"
   inkscape:connector-curvature="0"
   class="st1"
   d="m 144.4,87.3 6.5,-11 15.1,12 -3.9,13.9 -3.3,-3.5 z" />
</g><path
         id="path4214_2_"
         inkscape:connector-curvature="0"
         sodipodi:nodetypes="czcc"
         class="st7"
         d="m 28.3,163.1 c 0.4,2.4 -0.6,5.1 -4.5,5.1 -6.2,0 -7.6,-3.8 -7.3,-7.6 2.4,-0.1 9.2,1.9 11.8,2.5 z" /><path
         id="path4220_3_"
         inkscape:connector-curvature="0"
         class="st1"
         d="m 34.1,135.9 -8.2,24.3 c -3.1,-0.2 -6.4,0.3 -9.3,-0.6 L 23.4,139 Z" /><path
         id="path4222_2_"
         inkscape:connector-curvature="0"
         class="st7"
         d="m 124.7,173.4 c 0,14.5 -11.2,26.3 -24.9,26.3 -13.7,0 -24.9,-11.8 -24.9,-26.3 0,-14.5 11.2,-26.3 24.9,-26.3 13.7,0 24.8,11.8 24.9,26.3 z" /><path
         id="path4224_2_"
         inkscape:connector-curvature="0"
         class="st8"
         d="m 100.7,129 c 5,5.8 2.3,15.5 -6,21.6 -8.3,6.1 -19.2,6.3 -24.1,0.4 v 0 c -5,-5.8 -2.3,-15.5 6,-21.6 8.3,-6.1 19.2,-6.3 24.1,-0.4 z" /><path
         id="path4226_2_"
         inkscape:connector-curvature="0"
         class="st9"
         d="m 97.4,130.2 c 4.1,4.9 1.9,13 -5,18 -6.9,5.1 -15.8,5.2 -19.9,0.3 -4.1,-4.9 -1.9,-13 5,-18 6.8,-5.1 15.8,-5.2 19.9,-0.3 0,-0.1 0,-0.1 0,0 z" /><path
         id="path4244_2_"
         inkscape:connector-curvature="0"
         sodipodi:nodetypes="cccccccc"
         class="st7"
         d="m 59.2,202.4 6.4,3.4 36.7,13.4 11.3,1.4 -8.2,-7.1 -24.2,-8.8 -16.5,-4.7 z" /><path
         id="path4246_2_"
         inkscape:connector-curvature="0"
         class="st7"
         d="m 107.7,218.1 -41.9,49.3 -0.9,-64.2 c 16.2,2.9 26.1,6.4 42.8,14.9 z" /><path
         id="path4248_2_"
         inkscape:connector-curvature="0"
         sodipodi:nodetypes="cccccc"
         class="st10"
         d="m 92.8,211.1 8.2,3.7 -36.1,1.9 -5,-2.8 0.4,-1.3 z" /><path
         id="path4254_2_"
         inkscape:connector-curvature="0"
         sodipodi:nodetypes="ccccc"
         class="st10"
         d="m 63.4,201.6 -4.2,0.8 13.8,-39.7 4.5,-3.6 z" /><path
         id="path4258_2_"
         inkscape:connector-curvature="0"
         sodipodi:nodetypes="ccccc"
         class="st11"
         d="M 63.4,201.6 77.5,159.1 95,162.4 80.5,205.8 Z" /><path
         id="path4260_2_"
         inkscape:connector-curvature="0"
         sodipodi:nodetypes="ccccc"
         class="st12"
         d="m 104.4,214.9 14.5,-43.8 -23.8,-8.7 -14.5,43.5 z" /><path
         id="path4262_2_"
         inkscape:connector-curvature="0"
         sodipodi:nodetypes="ccccc"
         class="st11"
         d="m 113.7,220.6 -9.4,-5.8 14.5,-43.8 9.1,7 z" /><path
         id="path4400-7-6-7-02_2_"
         inkscape:connector-curvature="0"
         sodipodi:nodetypes="ccccc"
         class="st0"
         d="m 144.6,98.3 -0.6,10.6 -1,1.5 0.8,-12.4 z" /><path
         id="rect4278_2_"
         class="st13"
         d="m 135.3,95.8 8.6,0.5 c 0.1,0 0.1,0.1 0.1,0.1 l -0.9,13.7 c 0,0.1 -0.1,0.1 -0.1,0.1 l -8.6,-0.5 c -0.1,0 -0.1,-0.1 -0.1,-0.1 l 1,-13.8 c -0.1,0.1 -0.1,0 0,0 z" /><polygon
         id="rect4280_2_"
         class="st8"
         points="130,119.1 144.2,119.5 144.2,123.7 130,123.3 " /><g
         id="g4282_2_"
         transform="matrix(0.90478024,-0.15867388,0.15867388,0.90478024,-61.055079,113.78173)">
	<path
   id="path4284_2_"
   inkscape:connector-curvature="0"
   class="st14"
   d="m 214.7,31.9 c 1.3,1.5 1.4,-0.5 2.1,1.3 0.7,1.8 -0.8,0.5 -0.6,2.5 0.2,2 1.5,0.4 0.9,2.3 -0.4,1.9 -0.9,-0.1 -1.9,1.6 -1,1.7 0.9,1.2 -0.6,2.5 -1.5,1.3 -0.7,-0.6 -2.5,0.2 -1.8,0.8 0,1.5 -1.9,1.6 -2,0.2 -0.3,-0.9 -2.1,-1.4 -1.9,-0.4 -0.9,1.2 -2.5,0.2 -1.7,-1 0.3,-0.9 -0.9,-2.3 -1.3,-1.5 -1.4,0.5 -2.1,-1.3 -0.8,-1.8 0.8,-0.5 0.6,-2.5 -0.2,-2 -1.5,-0.4 -0.9,-2.3 0.4,-1.9 0.9,0.1 1.9,-1.6 1,-1.7 -0.9,-1.2 0.6,-2.5 1.5,-1.3 0.7,0.6 2.5,-0.2 1.8,-0.8 0,-1.5 1.9,-1.6 2,-0.2 0.3,0.9 2.1,1.4 1.9,0.4 0.9,-1.2 2.5,-0.2 1.6,1 -0.4,0.8 0.9,2.3 z" />
	<path
   id="path4286_3_"
   inkscape:connector-curvature="0"
   class="st6"
   d="m 213.3,36.2 c 0,2.1 -1.6,3.7 -3.7,3.7 v 0 c -2.1,0 -3.7,-1.6 -3.7,-3.7 v 0 c 0,-2.1 1.6,-3.7 3.7,-3.7 v 0 c 2.1,-0.1 3.7,1.7 3.7,3.7 z" />
</g><g
         id="g4292_2_"
         transform="matrix(0.96313857,-0.16890836,0.16890836,0.96313857,-155.31986,88.220911)">
	<path
   id="path4294_2_"
   inkscape:connector-curvature="0"
   class="st2"
   d="m 303.2,57.9 c 0,4.5 -3.6,8.1 -8.1,8.1 v 0 c -4.5,0 -8.1,-3.6 -8.1,-8.1 v 0 c 0,-4.5 3.6,-8.1 8.1,-8.1 v 0 c 4.5,0 8.1,3.6 8.1,8.1 z" />
	<path
   id="path4296_2_"
   inkscape:connector-curvature="0"
   class="st3"
   d="m 298.6,58 c 0,2.1 -1.6,3.7 -3.7,3.7 v 0 c -2.1,0 -3.7,-1.6 -3.7,-3.7 v 0 c 0,-2.1 1.6,-3.7 3.7,-3.7 v 0 c 2.1,-0.1 3.7,1.6 3.7,3.7 z" />
</g><path
         id="path4218-1_2_"
         inkscape:connector-curvature="0"
         sodipodi:nodetypes="czccc"
         class="st2"
         d="m 16.8,158.6 c -0.9,3.4 -0.5,5 1.5,6.3 2,1.2 5.3,0.7 8,0.3 3,-0.3 1.9,-4.7 1.5,-6.9 -3.5,0.5 -7.3,0.8 -11,0.3 z" /><path
         id="path4304_2_"
         inkscape:connector-curvature="0"
         sodipodi:nodetypes="cccssccsccsccc"
         class="st14"
         d="m 38.2,156.6 c 0.5,2.3 0,8.5 -0.9,10.7 -0.9,2.2 0.4,1.9 -2.1,2.7 -2.6,0.9 -0.7,-0.7 -3.3,-0.9 -2.7,-0.3 -1,1.6 -3.4,0.3 -2.4,-1.2 0.1,-0.9 -1.7,-3 -1.8,-2.1 -1.9,0.4 -2.7,-2.1 -0.8,-2.5 0.7,-0.6 0.9,-3.3 0.3,-2.7 -1.6,-1 -0.3,-3.4 1.2,-2.4 0.9,0.1 3,-1.7 2.1,-1.8 -0.4,-1.9 2.1,-2.7 2.5,-0.8 0.7,0.7 3.3,0.9 2.7,0.3 1,-1.6 3.4,-0.3 2.5,1 1.2,0.5 1.7,2.8 z" /><path
         id="path4306_2_"
         inkscape:connector-curvature="0"
         d="m 35.2,161.3 c 0.1,1.8 -1.4,3.3 -3.2,3.4 -1.8,0.1 -3.3,-1.4 -3.4,-3.2 0,-0.1 0,-0.2 0,-0.2 -0.1,-1.8 1.4,-3.3 3.2,-3.4 1.8,-0.1 3.3,1.4 3.4,3.2 0,0 0,0.1 0,0.2 z" /><path
         id="path4314_2_"
         inkscape:connector-curvature="0"
         sodipodi:nodetypes="cccccc"
         class="st1"
         d="m 47.8,162 h 7.8 l -0.1,2.3 -2.9,2.3 -7.7,-2.4 z" /><g
         id="g4316_2_"
         transform="translate(32.786421,86.716148)">
	<path
   id="path4320_2_"
   inkscape:connector-curvature="0"
   sodipodi:nodetypes="cccccc"
   class="st1"
   d="M 3.7,90.2 11.5,87.6 9.5,75.7 11.9,63 2.7,65.1 Z" />
	<path
   id="path4322_2_"
   inkscape:connector-curvature="0"
   sodipodi:nodetypes="ccccc"
   class="st1"
   d="m 10.1,90.3 4.6,-2.4 5.9,-8.7 c 0,0 -2.5,0.3 -3.1,0.3 z" />
</g><polygon
         class="st2"
         points="34.8,177 39,177 41.3,177 42.8,177 42.9,177 50.2,166.7 52.6,166.7 52.6,164.2 44.8,164.2 44.8,166.7 46.4,166.7 42.8,172 40.5,172 39.2,163.8 32.8,164.2 "
         id="polygon1-9" /><path
         id="path4334_2_"
         inkscape:connector-curvature="0"
         sodipodi:nodetypes="cccc"
         class="st2"
         d="m 47.8,156.9 -1.5,2.2 h -1.7 z" /><path
         id="path4336_2_"
         inkscape:connector-curvature="0"
         sodipodi:nodetypes="cccccc"
         class="st1"
         d="m 47.8,156.9 h 7.8 v 2.5 l -3,2.2 -4.7,-2.2 z" /><path
         id="path4344_2_"
         inkscape:connector-curvature="0"
         sodipodi:nodetypes="ccccc"
         class="st14"
         d="M 37.7,146.5 H 46 l -3.3,2.2 -8.2,-0.1 z" /><path
         id="path4346_2_"
         inkscape:connector-curvature="0"
         class="st3"
         d="m 42.5,148.8 3.4,-2.1 7.4,10.3 -3.4,2.1 z" /><path
         id="path4348_2_"
         inkscape:connector-curvature="0"
         class="st2"
         d="m 34.5,148.8 -2,12.8 H 39 l 1.2,-7.8 h 2.2 l 3.6,5.3 h -1.5 v 2.5 h 7.7 v -2.5 H 49.8 L 42.4,148.8 H 42.3 41 38.7 Z" /><g
         id="g4356_2_"
         transform="matrix(0.86331,0,0,1,-44.439083,21.161648)">
	<path
   id="path4358_2_"
   inkscape:connector-curvature="0"
   class="st7"
   d="m 97.2,141.3 c 0,2.3 -1.9,4.2 -4.2,4.2 v 0 c -2.3,0 -4.2,-1.9 -4.2,-4.2 v 0 c 0,-2.3 1.9,-4.2 4.2,-4.2 v 0 c 2.3,0 4.2,1.9 4.2,4.2 z" />
	<path
   id="path4362_2_"
   inkscape:connector-curvature="0"
   class="st3"
   d="m 95.8,141.3 c 0,1.5 -1.3,2.8 -2.8,2.8 v 0 c -1.5,0 -2.8,-1.3 -2.8,-2.8 v 0 c 0,-1.5 1.3,-2.8 2.8,-2.8 v 0 c 1.5,0.1 2.8,1.3 2.8,2.8 z" />
</g><path
         id="path4372_2_"
         inkscape:connector-curvature="0"
         sodipodi:nodetypes="ccccc"
         class="st14"
         d="m 66.3,131.2 9.9,-7 8.8,10.3 c 1.3,5.9 -3.2,9.1 -8.7,7.6 z" /><path
         id="path4378_2_"
         inkscape:connector-curvature="0"
         sodipodi:nodetypes="cscsc"
         class="st6"
         d="m 76.7,125.8 c 0.2,2.4 -2.3,5.2 -5.5,6.1 -3.2,0.9 -5.3,0.1 -5.4,-2.3 -0.2,-2.4 1.9,-5.4 5.1,-6.4 3.1,-1 5.7,0.2 5.8,2.6 z" /><path
         id="path4380_2_"
         inkscape:connector-curvature="0"
         class="st5"
         d="m 53.3,107.9 3.3,-2.6 16.3,20.6 c -0.2,1.5 -1.3,2.5 -3.3,2.6 z" /><path
         id="path4382_2_"
         inkscape:connector-curvature="0"
         sodipodi:nodetypes="ccccc"
         class="st14"
         d="m 70.3,151 c 10.6,8.9 35,-0.9 31,-21.1 l 3.4,6.4 c 3,14 -16.7,25.7 -28.4,19.9 z" /><path
         id="path4414_2_"
         inkscape:connector-curvature="0"
         sodipodi:nodetypes="ccccc"
         class="st9"
         d="m 69.1,174.1 c 11.2,-2.2 48.8,10.3 53.9,18.6 l -4.6,13.7 c -9.5,-8.7 -42.2,-20.6 -54,-18.6 z" /><path
         id="path4426_2_"
         inkscape:connector-curvature="0"
         sodipodi:nodetypes="ccccccc"
         d="m 91.4,176.2 0.9,1.4 -4.8,13.9 -11.3,-2.9 -0.4,-1.3 10,-1.1 z" /><path
         id="path4430_2_"
         inkscape:connector-curvature="0"
         sodipodi:nodetypes="ccccc"
         class="st4"
         d="m 80.6,173.9 10.8,2.3 -4.7,13.7 -10.8,-2.7 z" /><path
         id="path4432_2_"
         inkscape:connector-curvature="0"
         sodipodi:nodetypes="ccccccc"
         d="m 76.2,172.9 0.9,1.4 -5.3,13.6 c -2.4,-0.2 -4.7,-0.3 -7.4,0 l -0.6,-1.3 6.1,-6.7 z" /><path
         id="path4458_2_"
         inkscape:connector-curvature="0"
         class="st1"
         d="m 86.1,134.3 c 2.2,1.9 2.1,-0.9 3.5,1.5 1.4,2.5 -1.1,0.7 -0.8,3.4 0.3,2.7 2.4,0.9 1.6,3.4 -0.7,2.5 -1.4,-0.3 -3.1,1.6 -1.7,2 1.2,2.2 -1.2,3.3 -2.4,1 -0.9,-1.2 -3.6,-1.2 -2.7,0 -0.6,2.2 -3.3,1.2 -2.7,-1 0.2,-1.4 -2.1,-3.3 -2.3,-1.9 -2.1,0.9 -3.5,-1.5 -1.4,-2.4 1.1,-0.7 0.8,-3.4 -0.3,-2.7 -2.4,-0.9 -1.6,-3.4 0.7,-2.6 1.4,0.3 3.1,-1.6 1.7,-1.9 -1.2,-2.2 1.2,-3.3 2.4,-1 0.9,1.2 3.6,1.2 2.7,0 0.6,-2.2 3.3,-1.2 2.7,1 -0.1,1.4 2.1,3.3 z" /><path
         id="path4460_2_"
         inkscape:connector-curvature="0"
         class="st3"
         d="m 86.1,139.1 c 0.5,2.4 -1,4.5 -3.3,4.6 -2.4,0.2 -4.7,-1.5 -5.2,-4 v 0 c -0.5,-2.4 1,-4.5 3.3,-4.6 2.3,-0.2 4.6,1.6 5.2,4 z" /><path
         id="path4426-1-3_2_"
         inkscape:connector-curvature="0"
         sodipodi:nodetypes="ccccccc"
         d="m 98.4,178.1 -1.5,0.9 -5.2,13.7 11.2,4.5 1.5,-0.7 -9.2,-7 z" /><path
         id="path4422-0_2_"
         inkscape:connector-curvature="0"
         sodipodi:nodetypes="ccccc"
         class="st5"
         d="m 98.3,178.2 11.1,4.6 -5.2,13.7 -11,-4.5 z" /><path
         id="path4426-1-3-7_2_"
         inkscape:connector-curvature="0"
         sodipodi:nodetypes="ccccccc"
         d="m 114,184.8 -1.8,0.3 -5.5,14 8.3,4.6 1.5,-0.6 -6.9,-7.4 z" /><path
         id="path4418_2_"
         inkscape:connector-curvature="0"
         sodipodi:nodetypes="ccccc"
         class="st4"
         d="m 114,184.8 7.2,5.1 -4.7,13.4 -8.1,-4.6 z" /><path
         id="path4430-4_2_"
         inkscape:connector-curvature="0"
         sodipodi:nodetypes="ccccc"
         class="st9"
         d="m 68.8,173.1 7.4,-0.2 -5.2,13.7 -7.2,-0.2 z" /><path
         id="path4426-9_2_"
         inkscape:connector-curvature="0"
         sodipodi:nodetypes="ccccccc"
         d="m 122.7,192.3 1.5,0.1 -4.6,13.8 c 0,0.3 -0.4,0.6 -1.3,0.6 l 0.2,-0.4 -0.9,-0.8 z" /><path
         id="path4418-5_2_"
         inkscape:connector-curvature="0"
         sodipodi:nodetypes="ccccc"
         class="st9"
         d="m 124.2,192.4 0.1,1.6 -4.7,12.3 -0.6,-0.6 z" /><path
         id="path4248-0_2_"
         inkscape:connector-curvature="0"
         sodipodi:nodetypes="ccccccc"
         class="st10"
         d="m 105.5,220.8 3.7,2.5 -0.6,1.2 -43.2,2.2 -5,-2.4 0.6,-1.3 z" /><path
         id="path4248-0-1_2_"
         inkscape:connector-curvature="0"
         sodipodi:nodetypes="ccccccc"
         class="st10"
         d="m 96.6,231.2 3.7,2.6 -0.5,1.2 -34.4,1.8 -5.1,-2.7 0.6,-1.2 z" /><path
         id="path4248-0-1-3_2_"
         inkscape:connector-curvature="0"
         sodipodi:nodetypes="ccccccc"
         class="st10"
         d="m 87.6,241.9 3.4,2.6 -0.5,1.2 -25.1,1.3 -4.6,-2.4 0.5,-1.3 z" /><path
         id="path4248-0-1-3-2_2_"
         inkscape:connector-curvature="0"
         sodipodi:nodetypes="ccccccc"
         class="st10"
         d="m 78.5,252.3 3.5,2.6 -0.5,1.2 -15.9,0.7 -4.2,-2.4 0.5,-1.3 z" /><path
         id="path4400_2_"
         inkscape:connector-curvature="0"
         sodipodi:nodetypes="ccccc"
         class="st5"
         d="m 93.4,101.7 15.5,-5.7 -2.2,8.4 -17.5,5.7 z" /><path
         id="path4392_2_"
         inkscape:connector-curvature="0"
         class="st6"
         d="m 94.8,139.9 h 1.5 l 3.9,7.5 h -1.5 z" /><path
         class="st14"
         d="M 97.9,107.6"
         id="path1-1" /><path
         id="path4228_2_"
         inkscape:connector-curvature="0"
         class="st5"
         d="m 85,125.5 1.8,-1.4 8.8,11.2 c -0.1,0.9 -0.7,1.4 -1.8,1.4 z" /><g
         id="g4230_2_"
         transform="translate(-229.64347,-16.351332)">
	<path
   id="path4232_2_"
   inkscape:connector-curvature="0"
   class="st10"
   d="m 321,138.5 c 0.6,1 1.1,-0.5 1.4,0.8 0.3,1.3 -0.8,0.3 -0.9,1.7 -0.1,1.4 1.1,0.1 0.6,1.5 -0.5,1.4 -0.8,0 -1.5,1.3 -0.9,1.3 0.8,0.6 -0.3,1.8 -1.1,1.1 -0.5,-0.4 -1.8,0.5 -1.3,0.9 0.3,1 -1.2,1.6 -1.4,0.6 -0.2,-0.7 -1.6,-0.4 -1.5,0.3 -0.3,1.1 -1.7,1 -1.4,-0.1 0.3,-0.8 -0.9,-1.2 -1.2,-0.4 -0.9,0.9 -1.8,0.2 -0.9,-0.8 0.6,-0.7 0,-1.7 -0.6,-1 -1.1,0.5 -1.4,-0.8 -0.3,-1.3 0.8,-0.3 0.9,-1.7 0.1,-1.4 -1.1,-0.1 -0.6,-1.5 0.5,-1.4 0.8,0 1.5,-1.3 0.9,-1.3 -0.8,-0.6 0.3,-1.8 1.1,-1.1 0.5,0.4 1.8,-0.5 1.3,-0.9 -0.3,-1 1.2,-1.6 1.4,-0.6 0.2,0.7 1.6,0.4 1.5,-0.3 0.3,-1.1 1.7,-1 1.4,0.1 -0.3,0.8 0.9,1.2 1.2,0.4 0.9,-0.9 1.8,-0.2 0.9,0.7 -0.6,0.6 0,1.7 z" />
	<path
   id="path4234_2_"
   inkscape:connector-curvature="0"
   class="st10"
   d="m 317.8,141.7 c -0.3,1.1 -1.5,2 -2.6,2 v 0 c -1.1,0 -1.8,-0.9 -1.5,-2 v 0 c 0.3,-1.1 1.5,-2 2.6,-2 v 0 c 1.2,0 1.9,0.9 1.5,2 z" />
</g><path
         id="path4238_2_"
         inkscape:connector-curvature="0"
         sodipodi:nodetypes="ccccc"
         class="st5"
         d="m 75,112.5 1.8,-1.4 10.5,13.7 c -0.1,0.9 -0.7,1.4 -1.8,1.4 z" /><path
         id="path4444_2_"
         inkscape:connector-curvature="0"
         class="st15"
         d="m 88.4,80 c 0.9,5.9 1.5,11.1 0,17 -0.9,7.4 -14.4,17.2 -32,31.5 -5.1,4.1 -11.5,5.8 -16.2,5.8 -2.2,0 -4.1,1.1 -6,1.2 z" /><path
         id="path4446_2_"
         inkscape:connector-curvature="0"
         class="st10"
         d="m 18.9,95.8 30,-31.5 c -12.4,-5.1 -15,-3.5 -26.2,8.2 -5.3,6.4 -10.7,9 -6.5,20.4 z" /><path
         id="path4448_2_"
         inkscape:connector-curvature="0"
         sodipodi:nodetypes="ccccc"
         class="st16"
         d="M 83.9,94.1 C 100.7,75.4 72,53.7 52.3,60.9 30.8,69.8 1.7,104.4 3.3,127 c 0.7,8.3 2.9,14.3 11.3,15.4 23.9,2.3 54,-31.7 69.3,-48.3 z" /><path
         id="path4452_2_"
         inkscape:connector-curvature="0"
         class="st10"
         d="m 49.5,70.1 c 10.5,-7.5 23.7,-2 23.5,11.2 0.3,3.2 -1.3,5.4 -3.1,7.9 -5.2,7.1 -13.7,14 -22.2,15.7 -4.4,1.1 -8.6,-0.3 -12.2,-2.9 -2.3,-2 -3.1,-4.7 -2.2,-9.5 2.7,-8.3 8.5,-16.8 16.2,-22.4 z" /><polygon
         class="st7"
         points="98.6,108.4 91.3,110.7 96.4,139.9 100.2,147.3 105.4,140.1 102.3,134.3 "
         id="polygon2-4" /><polygon
         class="st6"
         points="107.3,105.7 91.3,110.7 96.4,139.9 94.8,139.9 89.2,110.1 107.2,104.3 "
         id="polygon3-9" /><path
         id="path4456_2_"
         inkscape:connector-curvature="0"
         class="st2"
         d="M 64.2,62.7 C 55.1,38.4 49.6,22 33,2.7 l 0.2,1.5 c 16.1,19.6 20.6,34.2 29.7,58.6 0.6,0.8 0.9,0.4 1.3,-0.1 z" /><path
         id="path4470_2_"
         inkscape:connector-curvature="0"
         class="st6"
         d="m 119,94.1 c 1.5,1.7 1.6,-0.8 2.7,1.3 0.9,2.1 -1.1,0.6 -0.7,2.8 0.4,2.2 1.8,0.2 1.6,2.4 -0.2,2.2 -1.3,0 -2.1,2.1 -0.8,2.1 1.5,1 0.3,2.9 -1.3,1.9 -1,-0.7 -2.8,0.8 -1.7,1.5 0.8,1.6 -1.3,2.6 -2.1,0.9 -0.6,-1.1 -2.8,-0.7 -2.2,0.4 -0.2,1.8 -2.4,1.6 -2.2,-0.2 0,-1.3 -2.1,-2 -2.1,-0.8 -1,1.5 -2.9,0.3 -1.9,-1.3 0.7,-1 -0.9,-2.7 -1.5,-1.7 -1.6,0.8 -2.7,-1.3 -0.9,-2.1 1.1,-0.6 0.7,-2.8 -0.4,-2.2 -1.8,-0.2 -1.6,-2.4 0.2,-2.2 1.3,0 2.1,-2.1 0.8,-2.1 -1.5,-1 -0.3,-2.9 1.3,-1.9 1,0.7 2.8,-0.8 1.7,-1.5 -0.8,-1.6 1.3,-2.6 2.1,-0.9 0.6,1.1 2.8,0.7 2.2,-0.4 0.2,-1.8 2.4,-1.6 2.2,0.2 0,1.3 2.1,2 2.1,0.8 1,-1.5 2.9,-0.3 1.9,1.2 -0.5,1 0.9,2.7 z" /><path
         id="path4472_2_"
         inkscape:connector-curvature="0"
         class="st3"
         d="m 117.3,99.8 c 0,2.7 -2.2,4.9 -5,4.9 v 0 c -2.7,0 -5,-2.2 -5,-4.9 v 0 c 0,-2.7 2.2,-4.9 5,-4.9 v 0 c 2.8,0 5,2.2 5,4.9 z" /></g></g><style
     type="text/css"
     id="style1">
	.st0{fill-rule:evenodd;clip-rule:evenodd;fill:#FFFFFF;}
	.st1{fill:#808080;}
	.st2{fill-rule:evenodd;clip-rule:evenodd;fill:#ABABAB;}
	.st3{fill-rule:evenodd;clip-rule:evenodd;fill:#808080;}
	.st4{fill-rule:evenodd;clip-rule:evenodd;fill:#CCCCCC;}
	.st5{fill:#616161;}
	.st6{fill:#999999;}
	.st7{fill-rule:evenodd;clip-rule:evenodd;fill:#616161;}
	.st8{fill-rule:evenodd;clip-rule:evenodd;fill:#474747;}
	.st9{fill:#CCCCCC;}
	.st10{fill:#474747;}
	.st11{fill-rule:evenodd;clip-rule:evenodd;}
	.st12{fill-rule:evenodd;clip-rule:evenodd;fill:#EEB211;}
	.st13{fill-rule:evenodd;clip-rule:evenodd;fill:#FFFFAC;}
	.st14{fill:#ABABAB;}
	.st15{fill-rule:evenodd;clip-rule:evenodd;fill:#999999;}
	.st16{fill:#EEB211;}
	.st17{fill:#FAD94E;}
</style><style
     type="text/css"
     id="style1-8">
	.st0{fill:#808080;}
	.st1{fill-rule:evenodd;clip-rule:evenodd;fill:#ABABAB;}
	.st2{fill-rule:evenodd;clip-rule:evenodd;fill:#808080;}
	.st3{fill-rule:evenodd;clip-rule:evenodd;fill:#CCCCCC;}
	.st4{fill:#616161;}
	.st5{fill:#999999;}
	.st6{fill-rule:evenodd;clip-rule:evenodd;fill:#616161;}
	.st7{fill-rule:evenodd;clip-rule:evenodd;fill:#474747;}
	.st8{fill:#CCCCCC;}
	.st9{fill:#474747;}
	.st10{fill-rule:evenodd;clip-rule:evenodd;}
	.st11{fill-rule:evenodd;clip-rule:evenodd;fill:#EEB211;}
	.st12{fill-rule:evenodd;clip-rule:evenodd;fill:#FFFFAC;}
	.st13{fill:#ABABAB;}
	.st14{fill-rule:evenodd;clip-rule:evenodd;fill:#999999;}
	.st15{fill:#EEB211;}
	.st16{fill:#FAD94E;}
</style></svg>
