<?xml version="1.0" encoding="utf-8"?>
<!-- Generator: Adobe Illustrator 24.2.3, SVG Export Plug-In . SVG Version: 6.00 Build 0)  -->
<svg version="1.1"
	 id="svg5340" xmlns:cc="http://creativecommons.org/ns#" xmlns:dc="http://purl.org/dc/elements/1.1/" xmlns:inkscape="http://www.inkscape.org/namespaces/inkscape" xmlns:rdf="http://www.w3.org/1999/02/22-rdf-syntax-ns#" xmlns:sodipodi="http://sodipodi.sourceforge.net/DTD/sodipodi-0.dtd" xmlns:svg="http://www.w3.org/2000/svg"
	 xmlns="http://www.w3.org/2000/svg" xmlns:xlink="http://www.w3.org/1999/xlink" x="0px" y="0px" viewBox="0 0 179.8 311.4"
	 style="enable-background:new 0 0 179.8 311.4;" xml:space="preserve">
<style type="text/css">
	.st0{fill-rule:evenodd;clip-rule:evenodd;fill:#FFFFFF;}
	.st1{fill:#808080;}
	.st2{fill-rule:evenodd;clip-rule:evenodd;fill:#ABABAB;}
	.st3{fill-rule:evenodd;clip-rule:evenodd;fill:#808080;}
	.st4{fill-rule:evenodd;clip-rule:evenodd;fill:#CCCCCC;}
	.st5{fill:#616161;}
	.st6{fill:#999999;}
	.st7{fill-rule:evenodd;clip-rule:evenodd;fill:#616161;}
	.st8{fill-rule:evenodd;clip-rule:evenodd;fill:#474747;}
	.st9{fill:#CCCCCC;}
	.st10{fill:#474747;}
	.st11{fill-rule:evenodd;clip-rule:evenodd;}
	.st12{fill-rule:evenodd;clip-rule:evenodd;fill:#EEB211;}
	.st13{fill-rule:evenodd;clip-rule:evenodd;fill:#FFFFAC;}
	.st14{fill:#ABABAB;}
	.st15{fill-rule:evenodd;clip-rule:evenodd;fill:#999999;}
	.st16{fill:#EEB211;}
	.st17{fill:#FAD94E;}
</style>
<path class="st0" d="M73.3,315c-0.4,0-0.8-0.1-1.2-0.2c-1.4-0.5-2.4-1.8-2.4-3.3l-0.1-10.3l-3.1-1.8c-1.6-0.9-2.2-2.8-1.6-4.5
	l0.6-1.5c0.5-1.3,1.8-2.2,3.2-2.3l0.8,0l0-1.2l-3.5-1.8c-1.6-0.9-2.3-2.8-1.7-4.5l0.6-1.5c0.5-1.3,1.8-2.2,3.2-2.3l1.3-0.1l0-1.7
	l-4-2.2c-1.7-0.9-2.4-3-1.5-4.8l0.7-1.4c0.6-1.2,1.8-1.9,3.1-2l1.6-0.1l0-1.3l-3.7-1.8c-1.8-0.9-2.5-3-1.7-4.8l0.7-1.5
	c0.6-1.2,1.8-2,3.1-2.1L69,256l0-1.4l-4.2-2.4c-1.5-0.9-2.2-2.6-1.6-4.3l0.5-1.5c0.5-1.4,1.8-2.4,3.3-2.5l2-0.1l0-2.4l-4.9-2.6
	c-1.6-0.8-2.3-2.7-1.7-4.4l5.5-15.7l0,0c-0.2-0.5-0.4-1.1-0.3-1.6c0-0.5,0.1-0.9,0.2-1.4l5.9-15.5c0.3-0.7,0.7-1.2,1.3-1.6l3.6-10.4
	c0.2-0.6,0.6-1.2,1.1-1.6l3.2-2.6l-4.4-3.7c-0.3-0.2-0.6-0.5-0.8-0.7l-1.2-1c-0.5-0.4-0.9-1-1.1-1.6c-0.1-0.1-0.2-0.3-0.3-0.4
	l-5.4-5.7l-15.8-12.6c-3,1-6.1,1.5-9,1.6c-1.6,1-3.1,1.9-4.7,2.7l-1.8,5.3l0.3-0.2c0.6-0.4,1.3-0.6,2-0.6h9.7c1.5,0,2.9,1,3.4,2.4
	l7,9.7h0.8c2,0,3.6,1.6,3.6,3.6v2.9c0,0.5-0.1,1-0.3,1.4c0.3,0.5,0.4,1.1,0.4,1.7l-0.1,2.7c0,1.1-0.5,2-1.4,2.7l-2.4,1.9l-6.4,9.3
	c-0.3,0.5-0.8,0.9-1.3,1.2l-5.3,2.8c-0.5,0.3-1.1,0.4-1.7,0.4c-0.1,0-0.2,0-0.3,0h-9.1c-1.8,0-3.3-1.3-3.6-3l-0.9-5.5
	c-0.5,0.2-1,0.3-1.6,0.3c-1.1,0-2.1-0.4-3.1-0.9c-0.7-0.4-1.4-0.8-1.8-1.2c-0.6,0.1-1.2,0.1-1.9,0.1c-6.9,0-11.4-3.6-12.1-9.7
	c-0.3-1.6-0.1-3.4,0.5-5.9c0.1-0.4,0.3-0.8,0.5-1.2l4.3-13.2c-0.4,0-0.8,0-1.2,0c-1.1,0-2.2-0.1-3.2-0.2
	C0.3,167.8-2.2,157.2-3,148.2c-0.8-11.3,4.3-25.7,14.5-40.5c-3.8-11.9,1.1-17.2,5.9-22.3c1-1,2-2.1,2.9-3.3c0.1-0.1,0.1-0.1,0.2-0.2
	c8.4-8.8,13.6-13.8,21.2-13.8c2.7,0,5.6,0.6,9.5,2c1.4-0.8,2.8-1.5,4.1-2C44.8,45.5,29.9,28,14.1,9.4C12.6,7.6,11,5.8,9.5,3.9
	C9,3.3,8.7,2.6,8.6,1.8L8.5,0.2c-0.1-1.6,0.8-3,2.3-3.6c0.4-0.2,0.9-0.3,1.3-0.3c1,0,2.1,0.5,2.8,1.3c2.8,3.4,5.7,6.7,8.5,10
	C37.5,24.2,51,39.9,61.2,60.1c-7.5-20-13.6-34.5-28.7-52.7c-0.4-0.5-0.7-1.2-0.8-1.9l-0.2-1.8c-0.2-1.6,0.7-3.1,2.1-3.7
	c0.5-0.2,1-0.3,1.4-0.3c1,0,2,0.4,2.7,1.3c18.4,21.3,25.5,39.9,34.8,65.2c9.8,1.4,19.3,6.6,25.2,13.8c0.6,0.7,1.2,1.5,1.7,2.3
	c0-1.6,0.2-3,0.4-4.3l0.1-0.7c0-0.3,0.1-0.5,0.2-0.8c2.6-10.7,11.1-18.2,20.8-18.2c3,0,5.9,0.7,8.7,2c12.3,0.7,20.1,12.9,20.6,24.5
	c0,0.1,0,0.1,0,0.2c0,6.5-2.2,12.6-6,17.1c0.8,0.6,1.6,1.3,2.3,2c1.8-3.6,5.2-6.3,9.3-7c0.7-0.1,1.5-0.2,2.2-0.2
	c6.2,0,11.5,4.5,12.6,10.6c0.5,3,0,6-1.5,8.6c-0.2,0.4-0.4,0.9-0.7,1.2L168,127c0,0.5-0.2,1-0.4,1.5c0.4,0.9,0.6,2,0.6,3.1
	c0,0.7-0.1,1.3-0.2,1.9c0.8,0.7,1.3,1.7,1.3,2.8c0.7,0.7,1.1,1.6,1.1,2.6v4.3c0,0.4-0.1,0.8-0.2,1.2l0.6,0.4c2.3,0.6,4.2,2.2,5,4.3
	c0.8,2,0.6,4.3-0.4,6.3l-1,10.9c-0.1,0.7-0.3,1.3-0.8,1.9l-8.9,11.3l-0.1,1.4c0,0.7-0.3,1.4-0.7,2l-1.1,1.5c-0.3,0.4-0.6,0.7-1,0.9
	l-1.7,1.1l-0.3,0.2c-0.7,0.6-1.5,0.8-2.3,0.8c-0.5,0-1.1-0.1-1.6-0.4c-0.9-0.5-1.6-1.3-1.9-2.3l-1.5,1.2c-0.4,0.4-0.8,0.6-1.3,0.8
	c-0.4,0.1-0.8,0.2-1.1,0.2c-1,0-2-0.4-2.7-1.2l-1.4-1.5c-0.7-0.8-1-1.8-0.9-2.8l0.2-2.3l-7.4-12.7c-0.3-0.6-0.5-1.3-0.5-2l0.4-11.3
	c-0.6-3.1,0.3-5.1,1.2-6.3c0.8-1,2.3-2.2,4.9-2.5l0.4-0.2c-0.1-0.3-0.1-0.6-0.1-0.9l0.1-3.6c-3.3,2.4-7.2,4.1-11.5,4.9
	c-3.8,0.8-9.7,2.1-14.8,3.2l0.4,2.7c0.3,0.5,0.5,1,0.7,1.5l2.5,4.7c0.2,0.3,0.3,0.6,0.4,1c0.3,1.2,0.4,2.4,0.4,3.7
	c0.6,1.2,0.5,2.5-0.3,3.6c-0.2,1.3-0.5,2.5-1,3.8c14,3.9,24,17.3,24.1,33c0,0.3,0,0.5,0,0.8l2.3,1.8c1.2,0.9,1.7,2.5,1.2,4
	l-4.6,13.8c0.3,0.5,0.4,1,0.5,1.6l0.1,1.9c0,0.5-0.1,1-0.2,1.5l-5.5,14.3c-0.1,0.3-0.3,0.6-0.4,0.8c-0.4,0.6-0.9,1.1-1.6,1.4
	l-4.7,14.2c-0.3,1-1.1,1.9-2.2,2.2c-0.4,0.1-0.8,0.2-1.2,0.2c0,0-0.1,0-0.1,0c-0.1,0-0.3,0-0.4,0l-1.2-0.1c0,0.4-0.2,0.9-0.4,1.3
	l-0.7,1.4c-0.6,1.2-1.7,1.9-3,2l-6.1,0.3l-2.8,3.3l1.1,0.8c1.4,1,1.9,2.8,1.2,4.4l-0.6,1.4c-0.5,1.3-1.8,2.1-3.1,2.2l-6.4,0.3
	l-2.9,3.4l1,0.8c1.3,1,1.8,2.8,1.1,4.3l-0.6,1.4c-0.5,1.3-1.8,2.1-3.1,2.2l-6.1,0.3l-2.8,3.2l0.9,0.6c1.4,1,1.8,2.8,1.2,4.3
	l-0.6,1.4c-0.5,1.3-1.8,2.1-3.2,2.2L86,302L76,313.7C75.3,314.6,74.3,315,73.3,315z M152,164.6c0.9,0,1.8,0.4,2.5,1.1l1.3,1.3
	c0.3,0.3,0.5,0.6,0.7,0.9l0.1,0c0.2-0.2,0.4-0.4,0.6-0.6l1.9-1.5c0.6-0.5,1.4-0.8,2.2-0.8c0.2,0,0.4,0,0.6,0l0-0.6l-6.4-2.2
	l-4.6,0.9l-0.1,0.6l0.4,1C151.4,164.6,151.7,164.6,152,164.6z M87.9,142.2l-4.1-5.3c-1,0.8-2.1,1.7-3.3,2.7l0,0
	c0.4,0,0.7-0.1,1.1-0.1c2.5,0,4.7,0.9,6.2,2.5C87.9,142.1,87.9,142.1,87.9,142.2z M95.7,136.1c0.3-0.1,0.6-0.1,0.9-0.1
	c0.2,0,0.5,0,0.7,0.1c0.3-0.2,0.6-0.3,1-0.4l-1.1-5.9c-0.4-1-0.4-2.1,0.1-3.1l2.9-5.6l0-0.4c-1.9,2.8-4.8,6-8.8,9.7L95.7,136.1z"/>
<polyline class="st1" points="165.4,154.8 165.1,155.6 148,154.6 148.1,153.9 "/>
<path id="path4400-7-6-7-02-9" inkscape:connector-curvature="0" sodipodi:nodetypes="ccsc" class="st1" d="M160.6,135l0.1-7
	c0,0,3.9-0.2,3.9,3.6C164.6,135.7,160.6,135,160.6,135z"/>
<path id="path4286_1_" inkscape:connector-curvature="0" class="st2" d="M163,130.3c0.5,2.7-1.4,5.4-4.1,5.8l0,0
	c-2.7,0.5-5.4-1.4-5.8-4.1l0,0c-0.5-2.7,1.4-5.4,4.1-5.8l0,0C159.9,125.7,162.5,127.5,163,130.3L163,130.3z"/>
<path id="path4220_1_" inkscape:connector-curvature="0" class="st3" d="M38.4,156.2l-9.5,28.3c-3.6-0.2-7.4,0.4-10.8-0.7l7.9-24
	L38.4,156.2z"/>
<path id="path4252" inkscape:connector-curvature="0" class="st3" d="M62.1,70.6C49.9,42,30.9,22.4,12.1,0l0.1,1.6
	c18.6,22,36.7,42,48.5,69.7L62.1,70.6L62.1,70.6z"/>
<sodipodi:namedview  bordercolor="#666666" borderopacity="1.0" fit-margin-bottom="0" fit-margin-left="0.2" fit-margin-right="0" fit-margin-top="0" id="base" inkscape:current-layer="layer1" inkscape:cx="141.0762" inkscape:cy="160.69374" inkscape:document-units="px" inkscape:pageopacity="0.0" inkscape:pageshadow="2" inkscape:window-height="697" inkscape:window-maximized="1" inkscape:window-width="1280" inkscape:window-x="-8" inkscape:window-y="-8" inkscape:zoom="4" pagecolor="#ffffff" showgrid="false" showguides="false">
	</sodipodi:namedview>
<g id="g4174" transform="translate(-90.859083,52.184348)">
	<path id="path4176" inkscape:connector-curvature="0" sodipodi:nodetypes="scccsccccccccs" class="st3" d="M211.9,9.7
		c-8.4,0-15.4,6.8-17.4,15.9v-0.1l-0.1,0.8c-0.3,1.5-0.4,3-0.4,4.5V31l1,62.8c0,0,11.8-5,20.5-6.8c9.9-0.2,17.9-9,17.9-19.8
		l-0.3-3.4c-1.2-7.2-5.6-12.8-11.6-15.2c5-3.7,8.4-10.3,8.4-17.9l-0.3-3.6C228.1,16.9,220.7,9.7,211.9,9.7z"/>
	<path id="path4178" inkscape:connector-curvature="0" sodipodi:nodetypes="ccccscccccccc" class="st4" d="M219.8,11.7
		c-8.4,0-15.4,6.8-17.4,15.9c0,0,0-0.1-0.1-0.1l-0.1,0.8c-0.3,1.5-0.4,3-0.4,4.5v0.3l-5.5,62c0,0,18.2-4.2,26.9-6
		c9.7-1.8,17.9-9,17.9-19.8l-0.3-3.4c-1.1-7.2-5.6-12.8-11.6-15.2c5-3.7,8.4-10.3,8.4-17.9C237.1,22.2,230.1,11.9,219.8,11.7z"/>
</g>
<path id="path4400-7-6-1" inkscape:connector-curvature="0" sodipodi:nodetypes="cccccccccccccc" class="st1" d="M146.2,151.5
	l-1.3,13.8l5.5,9.4l-0.2,8.7l2.1-1.7l1-12.2l-1.3-1.3l-1.7,1.2l0.1,3l-3.3-8.2l1.1-10.5l0.3-2.9L146.2,151.5z"/>
<path id="path4400-7-6-7-0" inkscape:connector-curvature="0" sodipodi:nodetypes="cccc" class="st1" d="M165.7,136.3l-9.5,18.6
	L156,155l5.3-20.2l1.3-0.4L165.7,136.3z"/>
<path id="path4400-7-6-7" inkscape:connector-curvature="0" sodipodi:nodetypes="ccccc" class="st1" d="M166.8,138.9v4.3l-2.2,1
	l-3.2-5.5L166.8,138.9z"/>
<path id="path4188" inkscape:connector-curvature="0" class="st2" d="M160.8,134.6l3.2,2l-8,18.4l-4.2-17.4l2.5-2.6L160.8,134.6
	L160.8,134.6z"/>
<path id="path4400-7-6" inkscape:connector-curvature="0" sodipodi:nodetypes="ccccccccccccccc" class="st1" d="M161.6,143.1
	l7.8,5.1c3.3,0.5,4.2,3.8,2.5,6l-1.1,11.8l-9.6,12.2l-0.1,2.6l-1.1,1.5l-2.2,1.4l1.6-13.6l1.9-1.5l-0.2,3.8l7.5-5.6l1.7-15L159,144
	L161.6,143.1z"/>
<g id="g4190" transform="matrix(0.90478024,-0.15867388,0.15867388,0.90478024,-101.12999,127.81646)">
	<path id="path4192" inkscape:connector-curvature="0" class="st2" d="M270.5,81.2l-12.2,0.2l-1.4,4.9l3.6,10.1l1.1-4.6l1,1.6
		l-3.6,13.5l-1.2-1.9l1-3.6l-6-16.2l2.7-12.5c-0.2-3.8,1.7-5.1,4.7-4.6l10.9-3.6l3.4,0.8l-2.2,4.9l-11.7,2l-0.8,2.8l11.1,2.5
		L270.5,81.2L270.5,81.2z"/>
	<path id="path4194" inkscape:connector-curvature="0" class="st2" d="M268.9,80.8l10.7,5.9l-1.1,5l-8,7.2l1.2-4.6l-1.7,0.9
		l-3.1,13.6l1.9-1.1l0.8-3.7l12.8-11.5l3.5-12.3c2-3.2,0.9-5.3-2-6.3l-8-8.3l-3.4-0.9l-0.3,5.3l9.4,7.2l-1.3,2.3l-9.1-2.1
		L268.9,80.8z"/>
</g>
<path id="path4400-7-6-7-02-4" inkscape:connector-curvature="0" sodipodi:nodetypes="ccccc" class="st5" d="M126.7,110.7l26.2-3.3
	l-3.5,3.8l-15.9,1.8L126.7,110.7z"/>
<polygon id="rect4198" class="st6" points="131,111.6 165.6,107.6 165.9,114.8 131.3,118.8 "/>
<g id="g4200" transform="translate(-93.659083,44.598348)">
	<path id="path4202" inkscape:connector-curvature="0" sodipodi:nodetypes="cccccc" class="st7" d="M147.8,109.5l8.6-6.4l15.7,22.8
		l-0.2,4.4l-6.3-6.6L147.8,109.5z"/>
	<path id="path4204" inkscape:connector-curvature="0" class="st2" d="M149.4,109.1l7.6-12.8l17.6,14l-4.5,16.2l-3.8-4.1
		L149.4,109.1z"/>
</g>
<path id="path4214" inkscape:connector-curvature="0" sodipodi:nodetypes="czcc" class="st8" d="M29.6,190c0.5,2.8-0.7,5.9-5.2,5.9
	c-7.2,0-8.9-4.4-8.5-8.8C18.7,187,26.6,189.3,29.6,190L29.6,190z"/>
<path id="path4220" inkscape:connector-curvature="0" class="st2" d="M36.4,158.3l-9.5,28.3c-3.6-0.2-7.4,0.4-10.8-0.7l7.9-24
	L36.4,158.3z"/>
<path id="path4222" inkscape:connector-curvature="0" class="st8" d="M141.9,202c0,16.9-13,30.6-29,30.6s-29-13.7-29-30.6
	s13-30.6,29-30.6S141.8,185.1,141.9,202L141.9,202z"/>
<path id="path4224" inkscape:connector-curvature="0" class="st9" d="M114,150.3c5.8,6.8,2.7,18.1-7,25.2
	c-9.7,7.1-22.3,7.3-28.1,0.5l0,0c-5.8-6.8-2.7-18.1,7-25.2C95.6,143.6,108.2,143.4,114,150.3z"/>
<path id="path4226" inkscape:connector-curvature="0" class="st10" d="M110.1,151.7c4.8,5.7,2.2,15.1-5.8,21s-18.4,6.1-23.2,0.4
	c-4.8-5.7-2.2-15.1,5.8-21C94.9,146.1,105.3,146,110.1,151.7C110.1,151.6,110.1,151.6,110.1,151.7z"/>
<path id="path4244" inkscape:connector-curvature="0" sodipodi:nodetypes="cccccccc" class="st8" d="M65.6,235.7l7.5,4l42.7,15.6
	l13.2,1.6l-9.5-8.3l-28.2-10.3l-19.2-5.5L65.6,235.7z"/>
<path id="path4246" inkscape:connector-curvature="0" class="st8" d="M122.1,254l-48.8,57.4l-1-74.7C91.1,240,102.7,244.1,122.1,254
	z"/>
<path id="path4248" inkscape:connector-curvature="0" sodipodi:nodetypes="cccccc" class="st11" d="M104.8,245.9l9.5,4.3l-42,2.2
	l-5.8-3.3l0.5-1.5L104.8,245.9z"/>
<path id="path4254" inkscape:connector-curvature="0" sodipodi:nodetypes="ccccc" class="st11" d="M70.5,234.8l-4.9,0.9l16.1-46.2
	l5.2-4.2L70.5,234.8z"/>
<path id="path4258" inkscape:connector-curvature="0" sodipodi:nodetypes="ccccc" class="st12" d="M70.5,234.8l16.4-49.5l20.4,3.9
	l-16.9,50.5L70.5,234.8z"/>
<path id="path4260" inkscape:connector-curvature="0" sodipodi:nodetypes="ccccc" class="st13" d="M118.2,250.3l16.9-51l-27.7-10.1
	l-16.9,50.6L118.2,250.3z"/>
<path id="path4262" inkscape:connector-curvature="0" sodipodi:nodetypes="ccccc" class="st12" d="M129.1,256.9l-11-6.7l16.9-51
	l10.6,8.2L129.1,256.9z"/>
<path id="path4400-7-6-7-02" inkscape:connector-curvature="0" sodipodi:nodetypes="ccccc" class="st1" d="M165.1,114.5l-0.7,12.3
	l-1.2,1.7l0.9-14.4L165.1,114.5z"/>
<path id="rect4278" class="st14" d="M154.2,111.6l10,0.6c0.1,0,0.1,0.1,0.1,0.1l-1.1,16c0,0.1-0.1,0.1-0.1,0.1l-10-0.6
	c-0.1,0-0.1-0.1-0.1-0.1l1.1-16C154.1,111.7,154.1,111.6,154.2,111.6z"/>
<polygon id="rect4280" class="st9" points="148.1,138.7 164.6,139.2 164.6,144.1 148,143.6 "/>
<g id="g4282" transform="matrix(0.90478024,-0.15867388,0.15867388,0.90478024,-61.055079,113.78173)">
	<path id="path4284" inkscape:connector-curvature="0" class="st15" d="M232.1,54.8c1.5,1.8,1.6-0.6,2.5,1.5
		c0.9,2.1-0.9,0.6-0.7,2.9c0.2,2.3,1.7,0.5,1.1,2.7c-0.5,2.2-1-0.1-2.2,1.9c-1.2,2,1.1,1.4-0.7,2.9s-0.8-0.7-2.9,0.2
		c-2.1,0.9,0,1.7-2.2,1.9c-2.3,0.2-0.3-1-2.5-1.6c-2.2-0.5-1,1.4-2.9,0.2c-2-1.2,0.4-1-1.1-2.7c-1.5-1.8-1.6,0.6-2.5-1.5
		s0.9-0.6,0.7-2.9c-0.2-2.3-1.7-0.5-1.1-2.7c0.5-2.2,1,0.1,2.2-1.9s-1.1-1.4,0.7-2.9s0.8,0.7,2.9-0.2c2.1-0.9,0-1.7,2.2-1.9
		c2.3-0.2,0.3,1,2.5,1.6c2.2,0.5,1-1.4,2.9-0.2C232.9,53.3,230.6,53,232.1,54.8L232.1,54.8z"/>
	<path id="path4286" inkscape:connector-curvature="0" class="st7" d="M230.5,59.8c0,2.4-1.9,4.3-4.3,4.3l0,0
		c-2.4,0-4.3-1.9-4.3-4.3l0,0c0-2.4,1.9-4.3,4.3-4.3l0,0C228.6,55.4,230.5,57.4,230.5,59.8L230.5,59.8z"/>
</g>
<g id="g4292" transform="matrix(0.96313857,-0.16890836,0.16890836,0.96313857,-155.31986,88.220911)">
	<path id="path4294" inkscape:connector-curvature="0" class="st3" d="M321.4,77c0,5.2-4.2,9.4-9.4,9.4l0,0c-5.2,0-9.4-4.2-9.4-9.4
		l0,0c0-5.2,4.2-9.4,9.4-9.4l0,0C317.2,67.6,321.4,71.8,321.4,77L321.4,77z"/>
	<path id="path4296" inkscape:connector-curvature="0" class="st4" d="M316.1,77.1c0,2.4-1.9,4.3-4.3,4.3l0,0
		c-2.4,0-4.3-1.9-4.3-4.3l0,0c0-2.4,1.9-4.3,4.3-4.3l0,0C314.2,72.7,316.1,74.7,316.1,77.1L316.1,77.1z"/>
</g>
<path id="path4218-1" inkscape:connector-curvature="0" sodipodi:nodetypes="czccc" class="st3" d="M16.3,184.8
	c-1,4-0.6,5.8,1.7,7.3c2.3,1.4,6.2,0.8,9.3,0.4c3.5-0.4,2.2-5.5,1.8-8C25,185,20.6,185.3,16.3,184.8L16.3,184.8z"/>
<path id="path4304" inkscape:connector-curvature="0" sodipodi:nodetypes="cccssccsccsccc" class="st15" d="M41.2,182.4
	c0.6,2.7,0,9.9-1,12.5s0.5,2.2-2.5,3.2s-0.8-0.8-3.9-1.1s-1.2,1.9-4,0.4c-2.8-1.4,0.1-1.1-2-3.5s-2.2,0.5-3.2-2.5s0.8-0.7,1.1-3.9
	c0.3-3.2-1.9-1.2-0.4-4c1.4-2.8,1.1,0.1,3.5-2s-0.5-2.2,2.5-3.2s0.8,0.8,3.9,1.1c3.2,0.3,1.2-1.9,4-0.4
	C42.1,180.3,40.6,179.7,41.2,182.4z"/>
<path id="path4306" inkscape:connector-curvature="0" d="M37.7,187.9c0.1,2.1-1.6,3.9-3.7,4s-3.9-1.6-4-3.7c0-0.1,0-0.2,0-0.2
	c-0.1-2.1,1.6-3.9,3.7-4s3.9,1.6,4,3.7C37.7,187.7,37.7,187.8,37.7,187.9z"/>
<path id="path4314" inkscape:connector-curvature="0" sodipodi:nodetypes="cccccc" class="st2" d="M52.4,188.7h9.1l-0.1,2.7
	l-3.4,2.7l-9-2.8L52.4,188.7z"/>
<g id="g4316" transform="translate(32.786421,86.716148)">
	<path id="path4320" inkscape:connector-curvature="0" sodipodi:nodetypes="cccccc" class="st2" d="M6.4,119.4l9.1-3l-2.3-13.8
		L16,87.8L5.3,90.2L6.4,119.4z"/>
	<path id="path4322" inkscape:connector-curvature="0" sodipodi:nodetypes="ccccc" class="st2" d="M13.8,119.5l5.3-2.8l6.9-10.1
		c0,0-2.9,0.4-3.6,0.4L13.8,119.5z"/>
</g>
<polygon class="st3" points="58,191.3 48.9,191.3 48.9,194.2 50.7,194.2 46.5,200.4 43.9,200.4 42.4,190.8 34.9,191.3 37.2,206.2 
	42.1,206.2 44.8,206.2 46.5,206.2 46.6,206.2 55.2,194.2 58,194.2 "/>
<path id="path4334" inkscape:connector-curvature="0" sodipodi:nodetypes="cccc" class="st3" d="M52.3,182.8l-1.7,2.6h-2L52.3,182.8
	z"/>
<path id="path4336" inkscape:connector-curvature="0" sodipodi:nodetypes="cccccc" class="st2" d="M52.3,182.8h9.1v2.9l-3.5,2.6
	l-5.5-2.6v-2.9H52.3z"/>
<path id="path4344" inkscape:connector-curvature="0" sodipodi:nodetypes="ccccc" class="st15" d="M40.6,170.7h9.7l-3.9,2.6
	l-9.5-0.1L40.6,170.7z"/>
<path id="path4346" inkscape:connector-curvature="0" class="st4" d="M46.2,173.3l4-2.5l8.6,12l-4,2.5L46.2,173.3z"/>
<path id="path4348" inkscape:connector-curvature="0" class="st3" d="M36.9,173.3l-2.3,14.9h7.6l1.4-9.1h2.6l4.2,6.2h-1.8v2.9h9
	v-2.9h-2.8l-8.6-12h-0.1h-1.7h-2.7C41.8,173.3,36.9,173.3,36.9,173.3z"/>
<g id="g4356" transform="matrix(0.86331,0,0,1,-44.439083,21.161648)">
	<path id="path4358" inkscape:connector-curvature="0" class="st8" d="M100.9,168.1c0,2.7-2.2,4.9-4.9,4.9l0,0
		c-2.7,0-4.9-2.2-4.9-4.9l0,0c0-2.7,2.2-4.9,4.9-4.9l0,0C98.7,163.2,100.9,165.4,100.9,168.1L100.9,168.1z"/>
	<path id="path4362" inkscape:connector-curvature="0" class="st4" d="M99.3,168.1c0,1.8-1.5,3.3-3.3,3.3l0,0
		c-1.8,0-3.3-1.5-3.3-3.3l0,0c0-1.8,1.5-3.3,3.3-3.3l0,0C97.8,164.9,99.3,166.3,99.3,168.1L99.3,168.1z"/>
</g>
<path id="path4372" inkscape:connector-curvature="0" sodipodi:nodetypes="ccccc" class="st15" d="M73.9,152.8l11.5-8.1l10.3,12
	c1.5,6.9-3.7,10.6-10.1,8.8L73.9,152.8z"/>
<path id="path4378" inkscape:connector-curvature="0" sodipodi:nodetypes="cscsc" class="st7" d="M86,146.6c0.2,2.8-2.7,6-6.4,7.1
	c-3.7,1.1-6.2,0.1-6.3-2.7c-0.2-2.8,2.2-6.3,5.9-7.5C82.9,142.4,85.9,143.8,86,146.6L86,146.6z"/>
<path id="path4380" inkscape:connector-curvature="0" class="st6" d="M58.8,125.7l3.8-3l19,24c-0.2,1.8-1.5,2.9-3.8,3L58.8,125.7z"
	/>
<path id="path4382" inkscape:connector-curvature="0" sodipodi:nodetypes="ccccc" class="st15" d="M78.6,175.9
	c12.3,10.4,40.8-1,36.1-24.6l4,7.4c3.5,16.3-19.5,29.9-33.1,23.2L78.6,175.9z"/>
<path id="path4414" inkscape:connector-curvature="0" sodipodi:nodetypes="ccccc" class="st10" d="M77.1,202.8
	c13-2.6,56.8,12,62.8,21.6l-5.4,15.9c-11.1-10.1-49.1-24-62.9-21.6L77.1,202.8z"/>
<path id="path4426" inkscape:connector-curvature="0" sodipodi:nodetypes="ccccccc" d="M103.1,205.2l1,1.6L98.5,223l-13.1-3.4
	l-0.5-1.5l11.7-1.3L103.1,205.2z"/>
<path id="path4430" inkscape:connector-curvature="0" sodipodi:nodetypes="ccccc" class="st5" d="M90.5,202.5l12.6,2.7l-5.5,16
	L85,218.1L90.5,202.5z"/>
<path id="path4432" inkscape:connector-curvature="0" sodipodi:nodetypes="ccccccc" d="M85.4,201.4l1,1.6l-6.2,15.8
	c-2.8-0.2-5.5-0.4-8.6,0l-0.7-1.5l7.1-7.8L85.4,201.4z"/>
<path id="path4458" inkscape:connector-curvature="0" class="st2" d="M96.9,156.5c2.6,2.2,2.5-1.1,4.1,1.8c1.6,2.9-1.3,0.8-0.9,4
	s2.8,1.1,1.9,4c-0.8,2.9-1.6-0.4-3.6,1.9c-2,2.3,1.4,2.6-1.4,3.8s-1-1.4-4.2-1.4s-0.7,2.6-3.9,1.4c-3.1-1.2,0.2-1.6-2.4-3.8
	s-2.5,1.1-4.1-1.8c-1.6-2.9,1.3-0.8,0.9-4s-2.8-1-1.9-4c0.8-3,1.6,0.4,3.6-1.9c2-2.3-1.4-2.6,1.4-3.8s1,1.4,4.2,1.4s0.7-2.6,3.9-1.4
	C97.7,153.9,94.4,154.2,96.9,156.5L96.9,156.5z"/>
<path id="path4460" inkscape:connector-curvature="0" class="st4" d="M96.9,162c0.6,2.8-1.2,5.2-3.9,5.4c-2.8,0.2-5.5-1.8-6-4.6l0,0
	c-0.6-2.8,1.2-5.2,3.9-5.4C93.6,157.2,96.3,159.2,96.9,162z"/>
<path id="path4426-1-3" inkscape:connector-curvature="0" sodipodi:nodetypes="ccccccc" d="M111.3,207.5l-1.8,1.1l-6.1,16l13,5.2
	l1.8-0.8l-10.7-8.2L111.3,207.5z"/>
<path id="path4422-0" inkscape:connector-curvature="0" sodipodi:nodetypes="ccccc" class="st6" d="M111.2,207.6l12.9,5.4l-6,16
	l-12.8-5.2L111.2,207.6z"/>
<path id="path4426-1-3-7" inkscape:connector-curvature="0" sodipodi:nodetypes="ccccccc" d="M129.4,215.2l-2.1,0.4l-6.4,16.3
	l9.7,5.4l1.7-0.7l-8-8.6L129.4,215.2z"/>
<path id="path4418" inkscape:connector-curvature="0" sodipodi:nodetypes="ccccc" class="st5" d="M129.4,215.2l8.4,5.9l-5.5,15.6
	l-9.4-5.4L129.4,215.2z"/>
<path id="path4430-4" inkscape:connector-curvature="0" sodipodi:nodetypes="ccccc" class="st10" d="M76.8,201.6l8.6-0.2l-6.1,15.9
	l-8.4-0.2L76.8,201.6z"/>
<path id="path4426-9" inkscape:connector-curvature="0" sodipodi:nodetypes="ccccccc" d="M139.6,224l1.7,0.1l-5.4,16.1
	c0,0.4-0.5,0.7-1.5,0.7l0.2-0.5l-1-0.9L139.6,224z"/>
<path id="path4418-5" inkscape:connector-curvature="0" sodipodi:nodetypes="ccccc" class="st10" d="M141.3,224.1l0.1,1.9l-5.5,14.3
	l-0.7-0.7L141.3,224.1z"/>
<path id="path4248-0" inkscape:connector-curvature="0" sodipodi:nodetypes="ccccccc" class="st11" d="M119.5,257.1l4.3,2.9
	l-0.7,1.4L72.8,264l-5.8-2.8l0.7-1.5L119.5,257.1z"/>
<path id="path4248-0-1" inkscape:connector-curvature="0" sodipodi:nodetypes="ccccccc" class="st11" d="M109.2,269.3l4.3,3
	l-0.6,1.4l-40,2.1l-5.9-3.2l0.7-1.4L109.2,269.3z"/>
<path id="path4248-0-1-3" inkscape:connector-curvature="0" sodipodi:nodetypes="ccccccc" class="st11" d="M98.7,281.7l4,3l-0.6,1.4
	l-29.2,1.5l-5.3-2.8l0.6-1.5L98.7,281.7z"/>
<path id="path4248-0-1-3-2" inkscape:connector-curvature="0" sodipodi:nodetypes="ccccccc" class="st11" d="M88.1,293.8l4.1,3
	l-0.6,1.4L73.1,299l-4.9-2.8l0.6-1.5L88.1,293.8z"/>
<path id="path4400" inkscape:connector-curvature="0" sodipodi:nodetypes="ccccc" class="st6" d="M105.5,118.5l18-6.6l-2.6,9.8
	l-20.4,6.6L105.5,118.5z"/>
<path id="path4392_1_" inkscape:connector-curvature="0" class="st7" d="M107.1,163h1.8l4.5,8.7h-1.8L107.1,163z"/>
<path class="st15" d="M110.7,125.4"/>
<path id="path4228" inkscape:connector-curvature="0" class="st6" d="M95.7,146.2l2.1-1.6l10.3,13c-0.1,1-0.8,1.6-2.1,1.6
	L95.7,146.2z"/>
<g id="g4230" transform="translate(-229.64347,-16.351332)">
	<path id="path4232" inkscape:connector-curvature="0" class="st11" d="M332.7,158.6c0.7,1.2,1.3-0.6,1.6,0.9c0.3,1.5-0.9,0.4-1,2
		s1.3,0.1,0.7,1.7c-0.6,1.6-0.9,0-1.8,1.5c-1,1.5,0.9,0.7-0.4,2.1c-1.3,1.3-0.6-0.5-2.1,0.6c-1.5,1,0.3,1.2-1.4,1.9
		c-1.6,0.7-0.2-0.8-1.9-0.5c-1.7,0.3-0.4,1.3-2,1.2s0.3-0.9-1.1-1.4s-1,1.1-2.1,0.2c-1.1-0.9,0.7-0.8,0-2s-1.3,0.6-1.6-0.9
		c-0.3-1.5,0.9-0.4,1-2s-1.3-0.1-0.7-1.7c0.6-1.6,0.9,0,1.8-1.5c1-1.5-0.9-0.7,0.4-2.1c1.3-1.3,0.6,0.5,2.1-0.6
		c1.5-1-0.3-1.2,1.4-1.9c1.6-0.7,0.2,0.8,1.9,0.5c1.7-0.3,0.4-1.3,2-1.2s-0.3,0.9,1.1,1.4s1-1.1,2.1-0.2
		C333.7,157.5,332,157.4,332.7,158.6L332.7,158.6z"/>
	<path id="path4234" inkscape:connector-curvature="0" class="st11" d="M329,162.4c-0.3,1.3-1.7,2.3-3,2.3l0,0c-1.3,0-2.1-1-1.7-2.3
		l0,0c0.3-1.3,1.7-2.3,3-2.3l0,0C328.6,160.1,329.4,161.1,329,162.4L329,162.4z"/>
</g>
<path id="path4238" inkscape:connector-curvature="0" sodipodi:nodetypes="ccccc" class="st6" d="M84,131.1l2.1-1.6l12.2,15.9
	c-0.1,1-0.8,1.6-2.1,1.6L84,131.1z"/>
<path id="path4444" inkscape:connector-curvature="0" class="st16" d="M99.6,93.2c1,6.9,1.8,12.9,0,19.8c-1.1,8.6-16.8,20-37.3,36.7
	c-5.9,4.8-13.4,6.8-18.9,6.7c-2.6,0-4.8,1.3-7,1.4L99.6,93.2z"/>
<path id="path4446" inkscape:connector-curvature="0" class="st11" d="M18.7,111.6l34.9-36.7c-14.4-5.9-17.5-4.1-30.5,9.5
	c-6.2,7.4-12.5,10.5-7.6,23.7L18.7,111.6L18.7,111.6z"/>
<path id="path4448" inkscape:connector-curvature="0" sodipodi:nodetypes="ccccc" class="st17" d="M94.4,109.6
	C114,87.8,80.6,62.6,57.6,71c-25,10.4-58.9,50.6-57,76.9c0.8,9.7,3.4,16.7,13.1,17.9C41.5,168.6,76.6,129,94.4,109.6L94.4,109.6z"/>
<path id="path4452" inkscape:connector-curvature="0" class="st11" d="M54.3,81.7c12.2-8.7,27.6-2.3,27.4,13
	c0.3,3.7-1.5,6.3-3.6,9.2c-6.1,8.3-15.9,16.3-25.8,18.3c-5.1,1.3-10-0.4-14.2-3.4c-2.7-2.3-3.6-5.5-2.6-11.1
	C38.6,98.1,45.4,88.2,54.3,81.7L54.3,81.7z"/>
<polygon class="st8" points="119.4,163.2 115.8,156.5 111.5,126.3 103,129 108.9,163 113.4,171.6 "/>
<polygon class="st7" points="100.6,128.3 121.5,121.5 121.6,123.1 103,129 108.9,163 107.1,163 "/>
<path id="path4456" inkscape:connector-curvature="0" class="st3" d="M71.4,73.1c-10.5-28.3-17-47.4-36.3-69.8l0.2,1.8
	c18.8,22.8,24,39.8,34.6,68.2C70.6,74.2,71,73.7,71.4,73.1L71.4,73.1z"/>
<path id="path4470" inkscape:connector-curvature="0" class="st7" d="M135.3,109.7c1.7,2,1.9-0.9,3.1,1.5c1.1,2.4-1.3,0.7-0.8,3.3
	s2.1,0.2,1.9,2.8c-0.2,2.6-1.5,0-2.4,2.4c-0.9,2.5,1.8,1.2,0.3,3.4c-1.5,2.2-1.2-0.8-3.3,0.9c-2,1.7,0.9,1.9-1.5,3s-0.7-1.3-3.3-0.8
	c-2.6,0.5-0.2,2.1-2.8,1.9c-2.6-0.2,0-1.5-2.5-2.3c-2.5-0.9-1.2,1.8-3.4,0.3c-2.2-1.5,0.8-1.2-1-3.2c-1.7-2-1.9,0.9-3.1-1.5
	c-1.1-2.4,1.3-0.7,0.8-3.3c-0.5-2.6-2.1-0.2-1.9-2.8c0.2-2.6,1.5,0,2.4-2.4c0.9-2.5-1.8-1.2-0.3-3.4c1.5-2.2,1.2,0.8,3.3-0.9
	c2-1.7-0.9-1.9,1.5-3s0.7,1.3,3.3,0.8s0.2-2.1,2.8-1.9s0,1.5,2.5,2.3c2.5,0.9,1.2-1.8,3.4-0.3S133.6,107.7,135.3,109.7L135.3,109.7z
	"/>
<path id="path4472" inkscape:connector-curvature="0" class="st4" d="M133.3,116.3c0,3.2-2.6,5.7-5.8,5.7l0,0
	c-3.2,0-5.8-2.6-5.8-5.7l0,0c0-3.2,2.6-5.7,5.8-5.7l0,0C130.7,110.6,133.3,113.1,133.3,116.3L133.3,116.3z"/>
</svg>
