<svg xmlns="http://www.w3.org/2000/svg" width="205" height="44" viewBox="0 0 205 44"><g fill="none" fill-rule="evenodd"><path d="M115.647 11.96c-1.449-1.392-3.566-2.21-6.12-2.21-3.325 0-5.975 1.349-7.805 3.944-1.448-2.595-4.001-3.943-7.278-3.943h-7.893v-.002h-3.76l-6.455 18.985L69.83 9.749h-.333l-.007-.015h-8.86c-5.109 0-8.723 2.325-8.723 6.65 0 3.94 2.458 5.957 7.085 6.34l3.902.337c2.794.24 3.95 1.346 3.95 3.462 0 2.785-2.36 4.181-6.311 4.181h-7.777l-2.701 2.964 10.527.015c5.781 0 9.637-2.641 9.637-7.21 0-4.467-2.843-6.006-6.986-6.39l-3.713-.336c-2.938-.288-4.239-1.345-4.239-3.46 0-2.45 1.83-3.62 5.3-3.62l6.558-.012 7.46 20.26-1.685 4.614c-.772 2.161-1.493 2.929-3.905 2.929h-1.06l-2.194 3.079h3.687c1.688 0 3.375-.434 4.627-1.636.674-.623 1.206-1.492 1.687-2.79l9.465-25.746v20.03h3.471V12.829h4.98c3.565 0 5.83 2.114 5.83 6.292v14.276h3.471V18.74c0-3.748 2.456-5.912 5.925-5.912 3.568 0 5.831 2.114 5.831 6.292v14.276h3.47v-14.85c0-2.737-.868-4.95-2.553-6.585" fill="#78BE20"></path><path d="M197.059 28.544c-1.436 0-2.491-.417-3.418-1.566-.926-1.148-1.345-2.805-1.345-5.34 0-2.534.419-4.14 1.345-5.295.875-1.058 1.982-1.565 3.418-1.565 1.563 0 2.631.545 3.88 1.886L205 12.607c-2.124-2.207-4.62-3.222-7.941-3.222-4.802 0-10.761 2.543-10.761 12.254 0 9.71 5.96 12.29 10.76 12.29 3.321 0 5.818-1.059 7.942-3.266l-4.06-4.005c-1.25 1.334-2.311 1.886-3.881 1.886M154.158 9.38c-3.56 0-5.908 1.386-7.433 2.952-2.169 2.304-2.722 4.974-2.722 9.3 0 4.326.553 7.047 2.722 9.352 1.525 1.565 3.88 2.945 7.433 2.945s5.96-1.38 7.485-2.945c2.213-2.253 2.722-5.02 2.722-9.352 0-4.333-.554-6.996-2.722-9.3-1.525-1.61-3.926-2.952-7.485-2.952m2.819 18.106c-.688.686-1.615 1.058-2.812 1.058-1.197 0-2.08-.372-2.774-1.058-1.249-1.201-1.384-3.363-1.384-5.854 0-2.49.135-4.602 1.384-5.795.695-.693 1.615-1.06 2.774-1.06 1.158 0 2.124.367 2.812 1.06 1.248 1.193 1.39 3.356 1.39 5.795s-.148 4.653-1.39 5.854m15.317-21.92h.013v-.793L166.302.695v26.098c0 3.408 2.08 6.86 6.97 6.86h3.27V28.59h-2.169c-1.436 0-2.079-.783-2.079-2.163V14.912h4.247v-4.557h-4.247V5.567zM133.751 9.11c-2.446 0-4.3.642-5.825 2.394V5.566h.006v-.803L121.928.686v32.69h5.818v-2.252c1.66 1.843 3.41 2.53 6.005 2.53 2.355 0 4.479-.777 5.817-2.164 2.305-2.349 2.491-6.078 2.491-10.14 0-4.063-.186-7.728-2.49-10.077-1.34-1.38-3.418-2.163-5.818-2.163m-1.757 19.434c-3.604 0-4.062-3.035-4.062-6.911 0-3.878.458-6.856 4.062-6.856 3.603 0 4.06 2.992 4.06 6.856 0 3.862-.457 6.911-4.06 6.911m46.312-18.189v23.302h6.004v-20.75l-6.004-4.073v1.521z" fill="#55565a"></path><path d="M3.129 23.333C1.109 24.778.002 26.646 0 28.618c0 2.043 1.189 3.977 3.348 5.439L14.6 41.683C16.806 43.178 19.743 44 22.876 44c3.13 0 6.068-.822 8.272-2.317l11.182-7.604c2.158-1.465 3.349-3.394 3.349-5.439 0-2.043-1.19-3.974-3.349-5.438L22.85 9.949l-7.8 5.292 19.725 13.378-11.925 8.092L3.13 23.333z" fill="#78BE20"></path><path d="M22.824 0c-3.131 0-6.068.824-8.275 2.317L3.365 9.924C1.211 11.387.022 13.317.022 15.36s1.187 3.978 3.343 5.44L22.85 34.05l7.8-5.288-19.726-13.381 11.924-8.09L42.57 20.668c2.02-1.446 3.127-3.313 3.127-5.286 0-2.044-1.188-3.975-3.344-5.44L31.098 2.318C28.893.824 25.956 0 22.824 0M43.199 0a2.313 2.313 0 0 1 2.316 2.31 2.312 2.312 0 0 1-2.316 2.31 2.312 2.312 0 0 1-2.317-2.31A2.313 2.313 0 0 1 43.199 0zm0 .517c-1 0-1.766.766-1.766 1.793 0 1.026.767 1.792 1.766 1.792.998 0 1.765-.766 1.765-1.792 0-1.027-.767-1.793-1.765-1.793zm.16.561c.499 0 .818.364.818.772 0 .339-.217.555-.454.65l.518 1.035h-.626l-.448-.95h-.262v.95h-.55V1.078zm-.07.453h-.384v.638h.384c.204 0 .339-.146.339-.32 0-.17-.135-.318-.34-.318z" fill="#55565a"></path></g></svg>